<?xml version="1.0" encoding="UTF-8"?>
<!DOCTYPE svg  PUBLIC '-//W3C//DTD SVG 1.1//EN'  'http://www.w3.org/Graphics/SVG/1.1/DTD/svg11.dtd'>
<svg version="1.1" xmlns="http://www.w3.org/2000/svg">
<defs>
<font id="Neoneon" horiz-adv-x="504">
<font-face font-family="Neoneon" font-weight="400" ascent="800" bbox="-9.52941 -126 788.2 1012.8" cap-height="800" descent="-200" panose-1="2 0 5 3 0 0 0 0 0 0" underline-position="-296" underline-thickness="99" unicode-range="U+0021-00FC" units-per-em="1000" x-height="800"/>
<missing-glyph/>
<glyph d="M68 143q-48 7 -49 79v14l-1 9v32l-15 409q0 15 15 15t15 -14l14 -409q0 -12 2 -55q0 -30 8 -43q3 -4 7 -6q3 -2 7 -2h30q15 0 15 -14q0 -15 -15 -15h-33zM174 6l-1 -1l-2 -1l-1 -1v-1h-2l-1 -1h-1l-1 -1h-124q-15 0 -15 15v3l-1 51q0 15 14 15q15 0 15 -14l1 -40h92 q1 28 5 142q1 19 2 51l1 28l1 28l5 115q11 300 11 328q0 31 -9 40q-7 8 -33 8h-115q-15 0 -15 15t15 15h115q39 0 55 -18q17 -18 17 -60q0 -31 -13 -362q-2 -55 -5 -123q-1 -25 -2 -57l-1 -26l-1 -25q-4 -107 -4 -115v-3l-1 -1v-1l-1 -2v-1z" glyph-name="exclam" horiz-adv-x="301" unicode="!"/>
<glyph d="M57 518q-14 5 -8 19q6 13 19 7q14 -7 31 5q16 11 22 27l44 100q11 26 0 53q-10 26 -37 38q-26 11 -53 1t-38 -37q-11 -26 -1 -53t37 -38q13 -6 8 -19q-6 -13 -19 -7q-38 16 -53 53q-14 37 2 75q16 37 54 52q37 15 74 0q37 -16 52 -55q15 -38 -1 -74l-43 -100 q-9 -23 -31 -39q-18 -13 -35 -13q-12 0 -24 5zM290 518q-13 5 -7 19q6 13 18 7q15 -7 32 5q16 11 22 27l43 100q12 26 1 53q-10 27 -37 38q-26 12 -53 1q-27 -10 -39 -37q-11 -26 -1 -53q11 -26 38 -38q13 -6 7 -19t-18 -7q-37 16 -52 53q-15 38 1 75q16 38 54 53 q37 15 74 -1q38 -17 52 -54q15 -38 -1 -75l-43 -99q-10 -24 -32 -40q-18 -13 -35 -13q-12 0 -24 5z" glyph-name="quotedbl" horiz-adv-x="533" unicode='"'/>
<glyph d="M279 0q-8 0 -12 5q-4 6 -3 12l32 217q2 13 17 12q14 -2 12 -17l-29 -199h71l30 203q1 13 14 13h106v72h-92q-8 0 -11 5q-5 6 -3 12l19 133q1 13 14 13h101v72h-85q-7 0 -11 5l-3 5q-2 4 -1 7l29 200h-70l-45 -306l-20 -133q-1 -14 -16 -13q-14 2 -12 17l19 133l47 319 q1 13 15 13h99q7 0 11 -5l3 -5q1 -4 1 -7l-29 -201h83q15 0 15 -15v-101q0 -15 -15 -15h-103l-14 -103h89q15 0 15 -14v-103q0 -15 -15 -15h-108l-29 -203q-2 -13 -15 -13h-101zM83 0q-3 0 -6 1q-4 2 -6 4q-4 6 -3 12l29 199h-82q-15 0 -15 15v103q0 14 15 14h102l15 103 h-89q-15 0 -15 15v101q0 15 15 15h108l30 205q1 13 14 13h100q7 0 11 -5q4 -6 3 -12l-31 -217q-2 -15 -17 -13q-14 1 -12 17l28 200h-69l-29 -204q-2 -13 -15 -13h-106v-72h91q7 0 11 -6t3 -11l-19 -133q-1 -13 -14 -13h-100v-72h85q6 0 10 -5l3 -6q2 -3 1 -6l-29 -199h71 l44 305l19 133q1 14 16 13q14 -2 13 -17l-18 -133l-46 -318q-1 -13 -15 -13h-101z" glyph-name="numbersign" horiz-adv-x="673" unicode="#"/>
<glyph d="M100 0l-2 2q-2 1 -3 3l-1 2l-1 3v5l1 1l304 777q3 7 11 7h71q6 0 10 -5q3 -6 0 -11l-138 -354q-5 -11 -15 -6q-11 5 -7 15l133 338h-46l-295 -754h45l135 344q5 11 16 7q11 -5 6 -16l-138 -351q-3 -7 -11 -7h-75zM130 606q-4 11 6 16q30 13 42 41q14 31 1 62 q-12 31 -42 45q-31 13 -62 1q-32 -12 -45 -42q-14 -32 -1 -63q12 -31 42 -44q11 -5 7 -16q-5 -10 -16 -5q-40 17 -55 57q-15 39 3 80q16 38 57 55q39 16 79 -2q39 -17 56 -57q15 -39 -3 -80q-16 -38 -53 -54l-5 -1q-8 0 -11 7zM504 7q-5 11 6 15q30 13 43 42q13 31 1 62 t-43 44q-31 14 -62 2t-44 -42q-13 -31 -2 -63q12 -31 43 -45q10 -4 5 -15q-4 -10 -15 -5q-39 17 -55 58q-15 40 2 79q18 39 58 55q41 15 80 -2t54 -58q16 -41 -1 -80q-16 -37 -55 -53q-1 -1 -4 -1q-8 0 -11 7z" glyph-name="percent" horiz-adv-x="682" unicode="%"/>
<glyph d="M423 5q-9 11 2 20l86 70l-57 89q-4 7 0 14q64 110 71 226l-70 12q-12 -96 -44 -154q-5 -7 -11 -7q-7 0 -12 5q-21 22 -49 65q-24 37 -41 68q-6 12 3 18l18 13l18 15q20 17 33 35q35 46 35 113q0 99 -61 140q-22 14 -50 21q-10 2 -21 3q-9 1 -17 1q-78 0 -117 -59 q-30 -45 -30 -106q0 -26 10 -65q2 -5 -1 -10q-2 -6 -7 -7q-6 -1 -11 1q-6 3 -7 8q-12 45 -12 73q0 77 43 131q48 62 132 62q91 0 138 -63q39 -52 39 -130q0 -72 -35 -123q-13 -20 -34 -39q-14 -13 -36 -29q33 -58 67 -102q25 53 35 140q0 6 5 9q5 4 11 3l96 -16 q11 -2 11 -16q-5 -124 -71 -242l59 -92q7 -9 -3 -18l-95 -79q-3 -3 -8 -3q-8 0 -12 5zM47 77q-47 64 -47 158q0 99 55 165q19 23 44 41q10 7 20 13l9 5l7 4v1q90 44 125 72q50 38 50 81q0 23 -6 36q-9 18 -28 18q-23 0 -32 -22q-4 -8 -5 -18l-1 -7v-5q0 -4 1 -13 q1 -6 -3 -11q-3 -5 -9 -5q-14 -2 -15 11l-1 9v9q0 33 15 55q18 25 50 25q61 0 61 -82q0 -54 -53 -98q-39 -33 -137 -81l-6 -3l-8 -5q-10 -6 -19 -12q-22 -16 -39 -37q-48 -57 -48 -146q0 -4 1 -8v-11q1 -14 4 -28q6 -39 22 -69q46 -91 156 -91q81 0 145 49l-6 10l-7 11 q-21 31 -37 55q-23 34 -41 62q-48 74 -70 114q-36 -35 -36 -89q0 -32 12 -52q17 -28 58 -42q13 -5 9 -18t-18 -9q-57 20 -78 64q-7 15 -9 33q-1 6 -1 14v10q0 44 19 78q15 25 40 44q5 3 11 2q3 -1 6 -3q2 -2 4 -5q17 -35 70 -116q20 -31 45 -68q9 -15 21 -31q7 -11 18 -27 q5 -8 11 -18l5 -7l5 -7l1 -2v-2l1 -4v-3l-1 -3l-1 -2l-2 -2l-1 -2q-82 -62 -173 -62q-107 0 -163 77z" glyph-name="ampersand" horiz-adv-x="652" unicode="&amp;"/>
<glyph d="M57 518q-13 6 -8 19q6 13 19 7q14 -7 31 5q15 10 22 28l44 99q11 26 0 54q-9 25 -37 37q-26 11 -53 1t-38 -37q-11 -26 -1 -53t37 -38q13 -6 8 -18q-6 -13 -19 -8q-38 17 -53 54q-14 37 2 74t54 52q37 15 74 0q37 -16 52 -54t-1 -74l-43 -100q-9 -24 -31 -40 q-17 -12 -35 -12q-12 0 -24 4z" glyph-name="quotesingle" horiz-adv-x="299" unicode="'"/>
<glyph d="M119 -77q-8 0 -12 7q-43 82 -72 197q-35 137 -35 271v29q0 14 14 14q6 0 10 -5q4 -4 4 -10l-1 -14v-14q0 -127 33 -257q27 -110 68 -191h72q-22 56 -38 125q-22 90 -36 209q-7 61 -48 130l-14 23q-13 21 -19 33q-11 20 -17 37q-16 43 -11 83q16 89 43 167q21 61 47 109 q4 7 12 7h102q8 0 12 -7q3 -6 0 -12q-72 -180 -83 -387q0 -13 -14 -13q-13 0 -13 15q10 201 78 377h-73q-25 -47 -44 -104q-25 -74 -39 -157q-5 -33 9 -70q6 -15 16 -32l18 -32l13 -23q45 -74 52 -141q26 -215 80 -345q3 -7 0 -13q-4 -6 -12 -6h-102z" glyph-name="parenleft" horiz-adv-x="335" unicode="("/>
<glyph d="M116 -77q8 0 12 7q43 82 72 197q35 137 35 271v15l-1 14q0 14 -13 14q-6 0 -10 -5q-4 -4 -4 -10l1 -14v-14q0 -127 -33 -257q-27 -110 -68 -191h-73q23 57 39 125q22 91 36 209q7 61 48 130l13 23l10 16l10 17q10 20 17 37q16 43 11 83q-16 89 -43 167q-21 61 -47 109 q-4 7 -12 7h-102q-8 0 -12 -7q-4 -6 -1 -12q72 -180 83 -387q0 -13 15 -13q13 0 13 15q-10 201 -78 377h73q25 -47 44 -104q25 -74 39 -157q5 -33 -9 -70q-6 -15 -16 -32l-18 -32l-13 -23q-45 -74 -52 -141q-25 -212 -81 -345q-3 -6 1 -13q4 -6 12 -6h102z" glyph-name="parenright" horiz-adv-x="335" unicode=")"/>
<glyph d="M132 387l-72 48q-9 6 -3 15l60 88h-107q-10 0 -10 11v85q0 11 10 11h88q42 0 69 -39l133 -196l54 36l-24 36q-5 8 4 14q8 6 13 -2l30 -44q6 -9 -3 -15l-72 -48l-3 -1h-4q-3 0 -6 4l-138 204q-20 31 -53 31h-78v-67h115q3 0 6 -1q3 -2 4 -4q2 -5 -1 -11l-65 -96l55 -36 l35 51q5 8 14 2q8 -5 3 -13l-40 -60q-3 -4 -9 -4zM339 538q-29 0 -43 8t-30 32q-11 18 -63 94q-49 72 -69 102l-55 -38l25 -36q6 -8 -3 -14t-14 2l-30 46q-5 8 3 13l72 49q8 5 14 -3q0 -1 62 -92l12 -18l11 -18q14 -20 23 -33q23 -35 29 -44q13 -19 23 -24q10 -6 33 -6h75 v67h-116q-6 0 -8 5q-3 5 0 10l64 96l-54 38l-34 -50q-5 -8 -14 -2q-8 5 -2 13l39 58q3 5 6 5l4 -1l3 -1l72 -49q8 -5 3 -13l-60 -89h107q10 0 10 -11v-85q0 -11 -10 -11h-85z" glyph-name="asterisk" horiz-adv-x="533" unicode="*"/>
<glyph d="M595 380q15 0 15 -14v-122q0 -14 -15 -14h-131q-15 0 -15 14q0 15 15 15h116v91h-200v-335q0 -15 -14 -15h-122q-14 0 -14 15v215h-215q-15 0 -15 14v122q0 14 15 14h215v215q0 15 14 15h122q14 0 14 -15v-132q0 -15 -14 -15q-16 0 -16 15v117h-91v-214q0 -16 -15 -16 h-214v-91h214q15 0 15 -15v-214h91v336q0 14 16 14h229z" glyph-name="plus" horiz-adv-x="709" unicode="+"/>
<glyph d="M57 -98q-14 7 -8 20q5 13 19 7q18 -8 35 7q7 5 12 13q5 7 7 13l45 100q12 28 1 54q-12 28 -38 38q-28 12 -55 1q-28 -11 -39 -37q-12 -27 -1 -53q12 -29 38 -39q13 -6 8 -19q-6 -13 -20 -7q-39 16 -53 54q-15 39 1 76t56 52q39 15 76 0q39 -17 54 -55q15 -39 -1 -76 l-45 -101q-9 -20 -26 -35q-20 -17 -42 -17q-11 0 -24 4z" glyph-name="comma" horiz-adv-x="303" unicode=","/>
<glyph d="M246 346q0 -14 -15 -14q-14 0 -14 14v78h-189v-63h95q14 0 14 -15q0 -13 -14 -13h-109q-15 0 -15 13v92q0 15 15 15h217q15 0 15 -15v-92z" glyph-name="hyphen" horiz-adv-x="344" unicode="-"/>
<glyph d="M122 9q-5 13 8 19q27 11 37 36q13 27 2 54t-37 39q-27 11 -55 1q-27 -10 -40 -37t-2 -54t39 -38q13 -6 7 -19q-6 -14 -19 -8q-39 17 -54 55q-15 39 2 76q18 37 56 52q38 14 77 -2q38 -17 53 -55q15 -39 -2 -76q-15 -35 -52 -50q-4 -2 -6 -2q-10 0 -14 9z" glyph-name="period" horiz-adv-x="302" unicode="."/>
<glyph d="M9 0q-1 0 -3 2l-2 1l-2 2l-1 2v9l304 777q3 7 12 7h70q6 0 10 -5l2 -5q0 -4 -1 -6l-139 -354q-5 -10 -14 -6q-5 2 -7 6q-2 5 -1 9l133 338h-45l-296 -754h46l135 344q5 11 15 7q11 -5 7 -16l-139 -351q-2 -7 -11 -7h-73z" glyph-name="slash" horiz-adv-x="499" unicode="/"/>
<glyph d="M76 54q-51 53 -61 152q-11 107 65 177q72 67 72 115q1 88 6 121q13 64 58 64q25 0 38 -19q10 -14 15 -42q6 -32 8 -96q1 -24 1 -55v-113q0 -38 -1 -70q-2 -82 -6 -111l-1 -8l-3 -9q-3 -11 -9 -20q-15 -23 -44 -23q-28 0 -43 21q-10 16 -14 45q-2 12 -4 75q-1 24 -2 50 q-1 22 -1 35q0 15 13 15q15 0 15 -14q0 -26 3 -86q3 -61 4 -72q6 -41 29 -41q22 0 29 37q7 45 7 239v102q-2 64 -8 94q-5 25 -13 33q-3 4 -7 5h-6q-23 0 -30 -40q-5 -34 -6 -117q0 -33 -15 -59q-17 -31 -66 -76q-65 -61 -56 -154q3 -31 11 -57q10 -34 27 -59q43 -65 129 -65 q111 0 153 108q23 59 33 153q4 35 5 72q1 27 1 53q0 183 -45 271q-46 87 -142 87q-97 0 -142 -93q-45 -92 -45 -292q0 -13 -14 -13t-14 13q0 177 35 273q52 140 180 140q138 0 189 -157q17 -55 23 -128q2 -27 3 -57v-44q0 -27 -1 -55q-1 -38 -5 -74q-10 -98 -34 -159 q-49 -126 -180 -126q-83 0 -134 54z" glyph-name="zero" horiz-adv-x="530" unicode="0"/>
<glyph d="M349 164q13 0 13 -14v-136q0 -14 -13 -14h-307q-15 0 -15 14v136q0 14 15 14q14 0 14 -14v-121h278v106h-149q-34 0 -51 14q-24 19 -24 68v309l-62 -1q-11 0 -14 9l-33 100q-3 8 3 14l146 148q4 4 10 4h115q14 0 14 -14v-541q0 -15 -14 -15t-14 15v526h-95l-136 -137 l28 -81l66 1q6 0 10 -4t4 -10v-323q0 -34 13 -45q9 -8 34 -8h164z" glyph-name="one" horiz-adv-x="462" unicode="1"/>
<glyph d="M410 172q15 0 15 -14v-144q0 -14 -15 -14h-399l-1 1h-1l-1 1h-1q-1 0 -1 1l-1 1l-3 2v1l-1 2v1l-1 1v7h1v1l1 2v1l1 1l1 1l2 2q140 92 262 258q129 175 129 289q0 102 -58 155q-48 44 -122 44q-96 0 -143 -74q-33 -52 -44 -148l98 -24q4 63 19 97q20 44 63 44 q27 0 43 -16q21 -21 21 -70q0 -104 -58 -198q-43 -68 -180 -217q-10 -11 -20 -1t-1 19q132 145 174 210q57 90 57 187q0 58 -36 58q-10 0 -17 -4q-10 -5 -17 -17q-18 -32 -21 -111q0 -6 -5 -10t-12 -3l-128 32q-11 3 -10 15l1 6v7l2 17q3 20 7 38q10 49 29 86 q55 105 178 105q83 0 140 -51q68 -60 68 -176q0 -115 -117 -282q-110 -157 -250 -263h339v116h-115q-14 0 -14 14t14 14h128z" glyph-name="two" horiz-adv-x="524" unicode="2"/>
<glyph d="M181 2q-22 3 -42 10q-52 18 -85 58q-31 39 -44 92q-5 20 -8 41q-1 8 -1 17q-1 6 -1 14q0 14 11 16l123 21q6 1 11 -2q5 -4 5 -10q7 -96 55 -96q24 0 36 15q17 20 17 71q0 22 -4 37q-2 6 1 11q4 6 9 7q14 3 17 -10q5 -19 5 -45q0 -115 -81 -115q-43 0 -64 38q-8 15 -12 35 q-4 15 -6 35l-94 -18q1 -15 3 -29q3 -18 8 -34q12 -42 37 -73q27 -34 72 -49q17 -6 37 -9q15 -2 30 -2q88 0 137 56q49 57 49 157q0 60 -35 90q-60 53 -215 35q-6 0 -10 3q-5 3 -5 11v78q0 13 13 13l28 2q37 4 49 17q19 21 19 84q0 10 -2 19q-1 13 -5 23q-9 27 -31 27 q-34 0 -46 -78q0 -5 -7 -10q-5 -3 -10 -2l-119 29q-14 3 -11 16v1l2 11l3 12q4 16 8 30q12 38 31 66q54 82 160 82q91 0 143 -56q52 -55 52 -154q0 -94 -41 -143q-9 -11 -20 -1q-11 9 -2 20q35 42 35 124q0 27 -5 51q-7 35 -22 60q-42 71 -140 71q-86 0 -132 -63 q-17 -23 -29 -54l-8 -26q-3 -11 -5 -23l91 -22q3 16 7 29q5 16 13 28q18 29 52 29q66 0 66 -96q0 -74 -26 -103q-19 -20 -67 -25l-16 -1v-50q156 15 221 -43q44 -40 44 -111q0 -100 -48 -164q-57 -77 -166 -77q-18 0 -35 2z" glyph-name="three" horiz-adv-x="530" unicode="3"/>
<glyph d="M242 0q-14 0 -14 14v103q0 13 14 13q13 0 13 -13v-89h107v166h-348q-14 0 -14 14v130l1 4l208 450q4 8 13 8h155q13 0 13 -14v-451q0 -13 -13 -13h-233l-5 1l-2 2l-3 3q-1 3 -1 6v5l1 2l99 245q3 9 15 8q11 -2 11 -14v-154q0 -13 -13 -13q-14 0 -14 13v83l-66 -159h196 v422h-132l-202 -439v-111h349q13 0 13 -14v-194q0 -14 -13 -14h-135z" glyph-name="four" horiz-adv-x="490" unicode="4"/>
<glyph d="M38 94q-20 33 -29 76q-4 16 -6 33q-2 12 -3 25q0 12 11 14l125 26q7 1 11 -2q6 -4 6 -10q5 -45 14 -64q13 -26 43 -26q29 0 41 23q12 24 12 84q0 47 -7 85q-1 15 11 16q16 2 17 -11q7 -39 7 -90v-10l-1 -10l-1 -22q-2 -26 -8 -44q-18 -50 -71 -50q-43 0 -64 35 q-8 13 -13 32q-4 15 -6 34l-98 -21q3 -30 10 -57q10 -36 28 -62q48 -70 144 -70q196 0 196 228q0 94 -59 147q-53 47 -130 47q-63 0 -115 -25q-18 -9 -33 -19q-11 -9 -16 -15l-1 -1l-2 -1l-2 -2l-3 -1h-8l-3 2l-1 2l-3 2l-1 2l-1 3v4l20 385q0 14 14 14h326q7 0 10 -5 q4 -4 4 -10l-12 -145q-2 -13 -15 -13h-196l-5 -75q0 -13 -15 -13q-13 0 -13 15l5 88q0 6 5 10q5 3 10 3h196l11 117h-297l-18 -339q28 19 65 31q45 14 94 14q87 0 148 -53q69 -62 69 -169q0 -256 -224 -256q-119 0 -173 94z" glyph-name="five" horiz-adv-x="534" unicode="5"/>
<glyph d="M215 0q-118 2 -171 114q-48 99 -43 288q4 137 37 233q59 169 199 165q16 0 31 -3q20 -3 39 -10q47 -17 78 -56q25 -31 38 -75q5 -17 9 -35l2 -14q1 -6 1 -13q2 -13 -12 -15l-116 -16q-7 0 -11 3q-5 5 -5 10l-1 3v4l-2 10q-2 15 -7 26q-14 34 -43 35q-27 0 -39 -17 q-15 -21 -22 -79q-1 -13 -16 -12q-13 2 -12 16q7 60 23 87q21 33 64 33h3q66 -1 79 -89l88 12q-4 29 -12 52q-11 33 -31 57q-26 32 -67 47q-15 6 -33 9q-13 2 -27 2q-120 2 -172 -146q-32 -92 -34 -224q-4 -186 39 -276q45 -96 147 -98h5q104 0 150 97q17 35 24 79 q3 17 5 35q1 13 1 26q2 98 -38 161q-40 62 -106 64h-3q-60 0 -79 -60q-9 -27 -13 -98q-1 -23 -1 -47q-1 -8 -1 -15v-5q0 -50 11 -80q13 -40 43 -40q24 -1 34 26q5 14 7 36l1 21l1 22q1 50 -2 78q-4 40 -16 57q-8 11 3 19t19 -2q27 -37 25 -153q-2 -59 -11 -87 q-10 -25 -29 -37q-14 -9 -33 -8q-34 1 -54 29q-27 38 -27 120v6q0 8 1 16q0 25 2 48q4 72 13 102q26 80 110 79q78 -2 126 -72q47 -70 45 -180q-4 -157 -87 -223q-30 -24 -68 -35q-15 -4 -31 -6q-12 -1 -24 -1h-4z" glyph-name="six" horiz-adv-x="534" unicode="6"/>
<glyph d="M49 0q-15 0 -15 14v258q0 60 33 125q15 28 90 173q74 142 105 201h-233v-106h87q14 0 14 -15q0 -14 -14 -14h-102q-14 0 -14 14v136q0 14 14 14h272q8 0 12 -7t0 -14q0 -1 -29 -57l-7 -13l-8 -14l-15 -30q-20 -37 -36 -68q-43 -82 -69 -133q-34 -65 -42 -81 q-29 -56 -29 -111v-243h135v241q0 68 19 112l1 1l140 246q17 31 17 111v46q0 14 15 14q13 0 13 -14v-45q0 -88 -20 -126l-140 -245q-4 -9 -6 -16q-3 -10 -6 -21q-5 -27 -5 -63v-256q0 -6 -4 -10t-10 -4h-163z" glyph-name="seven" horiz-adv-x="503" unicode="7"/>
<glyph d="M139 11q-50 15 -83 47q-32 33 -46 80q-6 18 -8 38q-2 15 -2 30q0 36 12 74q10 31 25 55q6 11 18 5l109 -55q11 -6 6 -18q-4 -13 -4 -37q0 -37 11 -58q15 -29 49 -29q30 0 47 24q29 42 9 95q-14 36 -41 55q-21 14 -55 32l-13 6l-12 6l-30 15q-17 9 -29 17q-31 22 -48 52 q-8 14 -13 25q-21 48 -21 107q0 101 58 162t156 61q108 0 165 -64q47 -53 47 -132q0 -32 -9 -62q-7 -23 -19 -43q-7 -12 -19 -5q-12 8 -5 20q10 16 16 36q8 26 8 54q0 85 -61 130q-50 37 -123 37q-76 0 -126 -43q-59 -52 -59 -151q0 -54 17 -94l7 -13l6 -12q22 -38 94 -72 l26 -12q37 -20 58 -34q36 -25 52 -68q25 -66 -12 -122q-25 -36 -71 -36q-42 0 -65 31q-24 31 -24 85q0 21 3 35l-86 44q-25 -48 -25 -103q0 -13 1 -27q2 -17 7 -32q11 -41 39 -69q29 -28 76 -41q19 -4 39 -7q16 -1 32 -1q102 0 157 54q55 53 55 152q0 63 -21 105 q-29 60 -98 91l-21 10l-21 9l-5 4l-14 6l-14 7q-15 8 -26 16q-29 21 -40 49t-11 64q1 42 18 68q20 30 56 30q72 0 72 -100q0 -18 -4 -36q-3 -14 -17 -12q-14 3 -11 17q3 19 3 31q0 11 -2 22q-2 13 -6 23q-11 26 -35 26q-20 0 -32 -17q-13 -19 -13 -53q0 -30 9 -53 q8 -21 32 -37q9 -7 22 -14l25 -12l5 -2l21 -10l21 -10q78 -36 111 -104q25 -50 25 -118q0 -110 -64 -173q-63 -62 -177 -62q-45 0 -84 11z" glyph-name="eight" horiz-adv-x="564" unicode="8"/>
<glyph d="M201 0q-16 0 -31 3q-21 3 -39 10q-48 17 -80 56q-25 31 -38 75q-5 16 -8 35l-2 14l-1 7l-1 6q-2 13 12 15l118 16q7 0 11 -3q5 -5 5 -10l1 -3v-4l2 -10q2 -15 7 -26q14 -34 43 -35h2q26 0 38 18q16 21 22 78q1 13 16 12q13 -2 12 -16q-8 -61 -25 -88q-21 -33 -66 -32 q-66 1 -79 89l-89 -12q2 -13 5 -24q3 -15 7 -28q11 -33 31 -57q26 -32 67 -47q16 -6 33 -9q13 -2 27 -2q121 -4 174 146q32 94 35 224q3 187 -40 276q-47 96 -148 98q-108 2 -155 -96q-17 -35 -25 -79q-3 -17 -4 -35q-2 -14 -2 -27q-2 -98 38 -160q41 -63 107 -65 q63 -1 83 60q9 27 12 98q2 22 2 46q0 8 1 15v5q0 51 -11 81q-13 40 -43 40q-24 1 -34 -26q-8 -23 -10 -79q-1 -50 2 -78q4 -40 16 -57q9 -11 -2 -19q-12 -9 -20 2q-27 37 -25 153q2 59 11 87q10 25 29 37q15 8 34 8q34 -1 54 -29q27 -38 27 -120v-6q0 -8 -1 -16 q0 -25 -1 -48q-4 -72 -14 -102q-26 -80 -110 -79q-79 2 -127 72q-49 71 -47 180q4 161 92 226q31 24 70 33q15 4 31 5q11 1 23 1q119 -2 172 -114q48 -99 44 -288q-4 -141 -37 -233q-58 -165 -196 -165h-5z" glyph-name="nine" horiz-adv-x="538" unicode="9"/>
<glyph d="M122 7q-5 13 8 19q27 11 37 36q13 27 2 54t-37 38q-28 12 -55 2t-40 -38q-13 -26 -2 -52q12 -29 39 -40q13 -5 7 -19q-6 -13 -19 -7q-39 16 -54 55q-15 38 2 75q18 38 56 53q37 15 77 -2q38 -17 53 -56q15 -38 -2 -75q-15 -34 -52 -50q-4 -2 -6 -2q-10 0 -14 9zM136 395 q-10 0 -14 9q-5 12 8 18q27 12 37 36q13 27 2 55q-11 26 -37 38q-28 12 -55 2t-40 -37t-2 -54q12 -28 39 -39q13 -6 7 -19t-19 -7q-39 16 -54 54q-15 39 2 76q18 37 56 52t77 -1q38 -17 53 -55q15 -39 -2 -76q-16 -36 -52 -51l-3 -1h-3z" glyph-name="colon" horiz-adv-x="302" unicode=":"/>
<glyph d="M122 406q-5 12 8 18q27 11 37 36q13 27 2 54t-37 39q-28 11 -55 1q-27 -9 -40 -37q-13 -26 -2 -53q12 -28 39 -39q13 -6 7 -19q-6 -14 -19 -8q-39 17 -54 56q-15 38 2 75q18 38 56 53q37 14 77 -3q38 -17 53 -55t-2 -75q-15 -35 -52 -51q-4 -1 -6 -1q-10 0 -14 9zM58 -97 q-14 6 -8 19t19 8q18 -8 35 7q7 5 12 13q5 6 7 12l45 101q12 27 1 54q-12 27 -38 38q-28 12 -55 1q-28 -11 -39 -38q-12 -27 -1 -53q11 -28 38 -39q13 -6 8 -19q-6 -13 -20 -7q-38 16 -53 54q-15 40 1 76q16 38 56 53q38 15 76 -1q39 -17 54 -55q15 -39 -1 -76l-45 -101 q-9 -20 -26 -35q-20 -17 -42 -17q-9 0 -24 5z" glyph-name="semicolon" horiz-adv-x="303" unicode=";"/>
<glyph d="M318 115q-2 1 -45 21q-25 11 -43 19q-26 12 -48 22q-132 60 -146 67q-29 14 -29 42q0 29 29 44q17 10 131 61q39 17 87 39q16 7 34 15q6 2 13 6l6 2l4 2v106l-292 -139q-11 -6 -17 6q-5 11 7 17l309 148q7 3 12 -1q6 -4 6 -11v-134q0 -9 -7 -11q-1 0 -41 -18 q-45 -20 -90 -41q-132 -59 -150 -69q-16 -9 -16 -22q0 -12 15 -20q10 -4 117 -53l43 -19q24 -11 41 -19q44 -20 63 -29v96l-103 43q-12 4 -7 17q4 10 16 6l112 -46q7 -2 7 -12v-124q0 -6 -6 -10q-3 -2 -7 -2z" glyph-name="less" horiz-adv-x="436" unicode="&lt;"/>
<glyph d="M9 114l-3 2q-6 4 -6 10v134q0 9 7 11q1 1 41 19q45 19 90 40q132 60 150 70q16 9 16 20q0 13 -15 21q-11 5 -117 53l-42 19q-27 13 -41 19q-45 20 -64 29v-95l104 -44q11 -4 6 -16q-4 -12 -16 -7l-111 47q-8 2 -8 11v124q0 6 6 10q5 4 12 1q2 -1 45 -21q25 -11 43 -19 q26 -12 49 -22q131 -60 145 -67q29 -14 29 -42t-29 -43q-17 -10 -131 -61q-40 -19 -86 -39q-18 -8 -35 -16q-14 -6 -23 -10v-106l292 140q11 5 17 -6q5 -11 -7 -17l-309 -148l-5 -1h-4z" glyph-name="greater" horiz-adv-x="434" unicode="&gt;"/>
<glyph d="M387 462q12 -8 4 -20t-21 -25l-12 -11l-11 -10l-12 -10l-12 -11q-37 -36 -39 -111l-5 -250v-3l-1 -1v-1l-1 -2l-1 -1l-1 -2l-2 -1l-2 -1q0 -1 -1 -1l-5 -1h-114q-14 0 -14 14l-2 53q0 15 14 15t14 -14l2 -39h86l4 236q3 86 48 130l13 12l12 11l11 9l10 9q11 11 18 22 q9 11 20 4zM131 221v50q0 78 19 119q24 47 92 87q11 6 32 15l22 10l24 12q26 15 41 32q41 46 20 120q-24 63 -84 89q-21 10 -45 14q-10 1 -19 2h-23q-7 0 -14 -1q-18 -2 -35 -7q-48 -14 -79 -46q-52 -55 -52 -157l98 -15q3 62 16 86q17 35 63 35q68 0 68 -99q0 -14 -15 -14 q-14 0 -14 14q0 46 -14 62q-5 6 -13 7l-6 1l-6 1q-30 0 -40 -22q-8 -19 -11 -89q0 -6 -5 -10l-4 -2l-5 -1h-3l-125 20q-5 0 -9 5q-4 4 -4 9q-5 122 60 189q37 38 92 54q19 5 40 7q8 1 15 2h11q8 0 16 -1q11 0 22 -2q28 -5 53 -16q69 -31 97 -105v-1h1q25 -90 -25 -146 q-18 -21 -48 -38q-12 -7 -26 -14l-12 -5l-12 -6q-8 -3 -16 -7l-7 -4l-6 -3q-61 -36 -81 -78q-16 -34 -16 -103v-50q0 -24 6 -37q3 -5 6 -8q2 -3 5 -4h33q14 0 14 -14q0 -15 -14 -15h-36q-2 0 -6 2q-36 15 -36 76z" glyph-name="question" horiz-adv-x="515" unicode="?"/>
<glyph d="M158 45q-76 45 -117 130q-41 84 -41 196q0 124 46 223q46 100 128 152q84 54 191 54q150 0 233 -95q83 -93 83 -261q0 -118 -43 -186q-44 -71 -124 -71q-37 0 -67 21q-13 8 -3 19q8 10 20 3q21 -16 50 -16q66 0 101 58q39 61 39 172q0 157 -76 244q-75 86 -213 86 q-99 0 -175 -50q-78 -51 -120 -141q-42 -93 -42 -212q0 -104 38 -185q39 -79 107 -119q69 -41 165 -41q91 0 165 36v57q-83 -34 -164 -34q-112 0 -176 78q-62 77 -62 213q0 95 32 174q33 79 91 122q59 44 138 44q105 0 163 -70q57 -69 57 -201q0 -75 -15 -123 q-17 -54 -52 -54q-26 0 -38 22q-11 17 -11 60v17l10 210q-59 17 -110 17q-74 0 -119 -58q-45 -59 -45 -160q0 -83 32 -124q29 -38 81 -38h1q52 0 52 136v1l2 63l6 97q-10 2 -16 2h-3l-3 -1q-5 -1 -9 -4q-13 -7 -23 -30q-19 -40 -19 -102q0 -30 14 -46q8 -9 -2 -18t-19 2 q-21 24 -21 62q0 68 21 113q23 50 64 50q21 0 36 -6q8 -4 8 -13l-6 -108l-2 -62v-22q0 -14 -1 -25q-2 -32 -9 -54q-18 -62 -70 -62h-1q-66 0 -104 49q-37 48 -37 140q0 109 51 175q52 69 141 69q57 0 128 -21q10 -3 10 -13l-10 -220v-16q0 -21 3 -34q1 -5 2 -9q1 -3 2 -5 q4 -7 14 -7q9 0 16 13q3 4 6 11q2 5 4 11q13 43 13 115q0 124 -51 185q-50 60 -141 60q-67 0 -121 -40q-55 -40 -83 -110q-30 -71 -30 -164q0 -126 57 -196q56 -69 154 -69q85 0 172 41q8 3 14 -1t6 -11v-86q0 -6 -7 -11q-83 -43 -186 -43t-180 45z" glyph-name="at" horiz-adv-x="780" unicode="@"/>
<glyph d="M287 166q-14 0 -14 15q0 14 14 14h74q5 1 10 -3q5 -3 6 -9l9 -55l19 -99h116l-66 273l-113 469h-132l-112 -469l-65 -273h117l40 220q13 71 84 71h48l-45 242l-31 -169q-3 -14 -17 -11q-15 3 -12 16l45 246q2 11 15 11q12 0 13 -11l63 -335v-7l-1 -2l-2 -3l-2 -3l-3 -1 l-5 -2h-63l-2 1l-1 -1q-30 0 -41 -10q-10 -9 -15 -38l-43 -231v-2l-1 -2l-1 -3l-3 -2q-3 -3 -5 -3h-151q-7 0 -11 6q-4 5 -3 12l70 291l115 480q3 11 14 11h155q10 0 13 -11l116 -480l70 -291q0 -9 -3 -12q-4 -6 -11 -6h-149l-3 1l-3 2l-3 5l-1 2l-1 2l-21 110l-8 44h-63z " glyph-name="A" horiz-adv-x="632" unicode="A"/>
<glyph d="M14 0q-14 0 -14 14v555q0 14 14 14q15 0 15 -14v-540h242q23 2 42 5q51 10 77 39q22 24 35 55q17 42 17 94q0 92 -40 140q-14 17 -33 29q-7 4 -15 7l-7 3l-5 2q-10 3 -10 13t8 14l12 5q8 4 14 8q15 10 26 25q30 40 30 118q0 51 -15 89q-6 15 -14 28q-6 10 -14 20 q-26 33 -65 42q-27 6 -102 6h-183v-95h183q94 0 94 -112v-13q0 -8 -1 -15q-3 -20 -10 -34q-22 -42 -83 -42h-78l-5 -2q-6 -4 -6 -12v-75q0 -14 15 -14h72q38 0 55 -6q24 -8 37 -33q8 -13 12 -29q5 -20 5 -42q0 -118 -103 -118h-107q-15 0 -15 13q0 15 15 15h107q39 0 56 17 q18 20 18 73q0 18 -4 34q-3 13 -9 24q-9 15 -22 20q-12 4 -45 4h-72q-18 0 -31 12t-13 30v75q0 20 14 32q12 11 30 11h74q41 0 56 23q10 16 10 52q0 84 -66 84h-198q-14 0 -14 14v124q0 14 14 14h198q81 0 111 -7q47 -12 79 -51q48 -58 48 -156q0 -72 -23 -117 q-17 -33 -48 -51q38 -21 61 -59q31 -53 31 -137q0 -58 -20 -106q-15 -35 -41 -63q-30 -34 -88 -46q-22 -5 -47 -6q-9 -1 -20 -1h-241z" glyph-name="B" horiz-adv-x="571" unicode="B"/>
<glyph d="M186 51q-16 28 -22 109q-2 32 -3 73q-1 30 -1 70v84q0 67 4 121q6 70 18 105q22 61 75 61h1q41 0 56 -55q10 -35 12 -117l128 11q-21 269 -200 269q-80 0 -131 -52q-51 -51 -73 -155q-17 -77 -17 -180q0 -237 83 -325q10 -11 -1 -22q-9 -10 -20 1q-91 96 -91 346 q0 108 19 191q24 109 80 166q59 60 150 60h1q89 0 145 -59q74 -78 86 -252q0 -15 -14 -16l-157 -14q-5 0 -11 4q-5 4 -5 11v5q-1 32 -2 51q-2 30 -6 50q-9 52 -33 52q-33 0 -48 -40q-12 -35 -17 -114q-2 -28 -3 -61v-126q0 -111 7 -173q5 -47 14 -64q28 -48 72 -48h1 q85 0 130 98q16 36 26 83q7 34 11 70l-125 9v-12l-1 -18v-19q-2 -21 -5 -38q-10 -43 -37 -62q-10 -8 -20 4q-8 12 4 21q19 13 25 49q3 14 4 32l1 16v16q0 20 1 28q1 14 15 14l154 -12q13 0 13 -16q-1 -15 -3 -32q-2 -21 -6 -42q-10 -55 -29 -98q-52 -121 -159 -121 q-61 0 -96 63z" glyph-name="C" horiz-adv-x="584" unicode="C"/>
<glyph d="M476 410q0 -251 -110 -356q-25 -23 -59 -37q-44 -17 -99 -17h-194q-14 0 -14 14q0 15 14 15h194q48 0 87 15q30 11 51 30q102 98 102 336q0 98 -20 173q-26 98 -83 143q-58 45 -192 45h-124v-553q0 -35 13 -46q9 -8 34 -8h127q24 0 39 7q22 9 31 34q9 28 14 93q2 25 3 54 v43q0 163 -25 212q-16 30 -62 30h-29v-394q0 -14 -14 -14t-14 14v408q0 15 14 15h43q65 0 89 -48q27 -57 27 -223v-25q-1 -28 -2 -55q-5 -83 -17 -119q-9 -26 -28 -41q-26 -20 -69 -20h-127q-34 0 -51 14q-25 20 -25 69v568q0 14 14 14h139q75 0 113 -8q55 -10 96 -43 q114 -89 114 -339z" glyph-name="D" horiz-adv-x="576" unicode="D"/>
<glyph d="M14 0q-14 0 -14 14v256q0 35 25 60q25 26 61 27h237v100h-160q-14 0 -14 14v179q0 15 14 15h213v106h-347v-368q0 -13 -15 -13q-14 0 -14 13v383q0 14 14 14h376q15 0 15 -14v-136q0 -14 -15 -14h-212v-150h159q14 0 14 -15v-129q0 -13 -14 -13h-247q-26 0 -43 -18 q-18 -18 -18 -42v-240h347v106h-213q-14 0 -14 15v99q0 14 14 14q15 0 15 -14v-85h212q15 0 15 -14v-136q0 -14 -15 -14h-376z" glyph-name="E" unicode="E"/>
<glyph d="M14 0q-14 0 -14 14v395q0 14 14 14q15 0 15 -14v-380h121v313q0 15 14 15h162v100h-238q-37 0 -62 25q-26 26 -26 63v241q0 14 14 14h355q14 0 14 -14v-136q0 -14 -14 -14h-191v-71q0 -15 -14 -15t-14 15v85q0 15 14 15h190v106h-325v-226q0 -25 17 -42t42 -17h251 q15 0 15 -15v-129q0 -13 -15 -13h-161v-315q0 -14 -14 -14h-150z" glyph-name="F" horiz-adv-x="483" unicode="F"/>
<glyph d="M279 -11l-10 1q-58 9 -87 62q-16 28 -22 109q-2 31 -3 72q-1 30 -1 70v84q0 69 4 121q5 71 18 105q21 61 75 61h1q41 0 56 -55q10 -35 12 -117l128 11q-21 269 -200 269q-80 0 -131 -52q-51 -51 -73 -155q-17 -77 -17 -180q0 -237 83 -325q10 -10 -1 -21q-10 -10 -20 0 q-91 96 -91 346q0 108 19 191q24 109 80 166q59 60 151 60q88 0 145 -59q74 -78 86 -252q0 -15 -14 -16l-157 -14q-5 0 -11 4q-5 4 -5 11v5q-1 33 -2 52q-2 29 -6 49q-9 53 -33 53q-34 0 -48 -41q-12 -35 -17 -114q-2 -28 -3 -61v-126q0 -111 7 -173q5 -47 14 -64 q24 -41 68 -48q36 -5 77 13q37 16 63 43q23 22 32 37q4 5 5 9l1 2v216l-156 16v-47l31 -4q12 -2 12 -15v-183q0 -15 -14 -15q-15 0 -15 15v171l-30 4q-13 1 -13 15v75q0 8 5 12q4 3 11 3l184 -19q14 -1 14 -14v-229q0 -14 -15 -34q-11 -15 -32 -36q-64 -65 -144 -65z" glyph-name="G" horiz-adv-x="580" unicode="G"/>
<glyph d="M162 -1l-148 1q-14 0 -14 14v771q0 14 14 14h149q14 0 14 -14v-361q0 -41 10 -53q11 -14 49 -14h50q15 0 15 -15v-313h119v741h-119v-334q0 -14 -15 -14q-14 0 -14 14v349q0 14 14 14h148q16 0 16 -14v-771q0 -14 -16 -14h-148q-14 0 -14 14v314h-36q-52 0 -71 25 q-16 20 -16 71v346h-120v-741l120 -1v239q0 15 14 15t14 -15v-253q0 -7 -4 -11t-10 -4h-1z" glyph-name="H" horiz-adv-x="549" unicode="H"/>
<glyph d="M14 0q-14 0 -14 14v535q0 49 25 68q17 14 50 14h18q14 0 14 -14q0 -15 -14 -15h-18q-24 0 -33 -8q-13 -11 -13 -45v-520h116v742h-116v-73q0 -14 -15 -14q-14 0 -14 14v88q0 14 14 14h144q15 0 15 -14v-772q0 -14 -15 -14h-144z" glyph-name="I" horiz-adv-x="272" unicode="I"/>
<glyph d="M71 8q-18 3 -35 7q-14 3 -26 7q-10 3 -10 13v136q0 7 5 11q4 3 11 3q3 0 13 -3l18 -4q13 -2 25 -4q34 -4 66 0q30 3 39 19q9 18 9 82v277q0 49 24 68q18 14 52 14h20q13 0 13 -15q0 -14 -13 -14h-20q-25 0 -34 -8q-13 -11 -13 -45v-277q0 -68 -12 -93q-16 -32 -63 -37 q-31 -3 -65 0q-12 2 -26 4l-11 2l-9 2v-107q27 -7 57 -11q43 -6 88 -6q107 0 140 79q20 47 20 178v485h-119v-71q0 -15 -14 -15q-15 0 -15 15v86q0 14 15 14h149q14 0 14 -14v-549q-1 -28 -3 -50q-5 -55 -21 -92q-41 -95 -166 -95q-54 0 -103 8z" glyph-name="J" horiz-adv-x="464" unicode="J"/>
<glyph d="M378 0q-8 0 -12 6q-1 3 -28 45l-6 10l-7 10q-8 13 -14 22q-18 28 -32 49q-86 134 -102 161q-28 53 -28 136v332h-120v-742h120v154q0 14 14 14q15 0 15 -14v-169q0 -14 -15 -14h-149q-14 0 -14 14v772q0 14 14 14h149q15 0 15 -14v-347q0 -74 24 -121q15 -25 91 -144 q25 -39 56 -89q6 -8 12 -18l5 -8l5 -8q12 -17 15 -22h128q-8 12 -26 42l-8 13l-9 14q-10 17 -18 30q-49 80 -84 137q-108 177 -124 210q-11 23 -11 51q0 21 5 38q7 20 67 119q20 33 43 71q9 13 16 25q7 10 9 15q4 6 12 6h153q8 0 12 -7q5 -7 0 -15l-175 -309q-7 -13 -20 -6 t-6 20l164 288h-120q-44 -70 -80 -130q-43 -72 -48 -86q-4 -13 -4 -30q0 -21 8 -37q19 -37 151 -254q23 -37 48 -79q20 -33 41 -67q9 -13 17 -27q6 -10 13 -21l11 -18q4 -7 0 -15q-3 -7 -12 -7h-161z" glyph-name="K" horiz-adv-x="652" unicode="K"/>
<glyph d="M14 0q-14 0 -14 14q0 15 14 15h313v113h-251q-34 0 -51 14q-25 20 -25 69v561q0 14 14 14h147q14 0 14 -14l1 -536q0 -15 -14 -15q-15 0 -15 15l-1 521h-117v-546q0 -34 13 -46q9 -8 34 -8h266q14 0 14 -14v-143q0 -14 -14 -14h-328z" glyph-name="L" horiz-adv-x="456" unicode="L"/>
<glyph d="M585 800q14 0 14 -14v-772q0 -14 -14 -14h-149q-14 0 -14 14v290q0 50 -4 67q-5 27 -24 50l-252 310l-5 6l-4 5q-24 29 -61 29h-43v-742h113v483l1 3v3l4 4q3 3 6 3h2l2 1l3 -1l2 -1l3 -1l2 -2v-1l129 -158q9 -12 -2 -20q-12 -9 -20 1l-104 128v-457q0 -14 -14 -14h-142 q-14 0 -14 14v772q0 14 14 14h58q34 0 54 -12q8 -5 16 -13l12 -15l9 -10l253 -311q34 -41 34 -135v-275h120v742h-41q-34 0 -40 -2q-8 -3 -18 -19q-4 -6 -18 -29q-10 -17 -28 -47q-37 -63 -38 -64q-7 -12 -19 -4q-12 7 -5 19q2 2 39 65l15 24q8 13 13 22q14 23 17 29 q16 25 32 31q12 4 51 4h55z" glyph-name="M" horiz-adv-x="699" unicode="M"/>
<glyph d="M29 771v-742h120v480q0 2 1 5q2 3 4 4l3 2l2 1h6l3 -1l2 -1q3 -1 4 -4l2 -1l222 -424l16 -25q23 -36 75 -36h50q14 0 14 -15q0 -14 -14 -14h-50q-68 0 -100 50l-16 24v1l-195 374v-435q0 -14 -15 -14h-149q-6 0 -10 4t-4 10v772q0 14 14 14h114q63 0 96 -59l301 -545v575 h-125v-168q0 -14 -14 -14q-15 0 -15 14v183q0 14 15 14h153q14 0 14 -14v-648l-1 -2l-1 -3q-1 -3 -4 -4l-2 -2l-3 -1h-4q-3 0 -6 2l-3 2l-2 2l-1 2l-327 593q-14 25 -27 34q-16 10 -44 10h-99z" glyph-name="N" horiz-adv-x="652" unicode="N"/>
<glyph d="M290 -12q-63 1 -95 42q-12 15 -19 36q-3 7 -5 16l-2 7l-2 7l-1 6q-7 30 -8 110q-1 29 -1 68v50l1 15v44q0 180 16 225q20 60 65 60q52 0 71 -61q9 -31 12 -103q2 -25 2 -57v-83q0 -30 -1 -56q-1 -79 -7 -112q-4 -26 -12 -42q-10 -22 -29 -32q-13 -6 -19 7q-6 14 6 19 q19 10 25 53q5 33 8 113q0 26 1 55v74q-1 31 -2 56q-3 71 -12 99q-12 40 -43 40q-11 0 -19 -6q-11 -10 -19 -33q-15 -42 -15 -216v-44q-1 -38 -1 -63q0 -39 1 -68q2 -77 8 -106l2 -5l3 -14l5 -14q5 -16 14 -28q24 -29 74 -29h2q81 0 123 122q36 102 36 252q0 200 -51 295 q-52 95 -160 95q-109 0 -161 -92q-52 -91 -52 -284q0 -209 58 -313l2 -3l4 -5q5 -8 10 -15q9 -11 -1 -20q-5 -4 -11 -4q-6 1 -9 5q-7 8 -13 17q-2 3 -3 6l-2 2l-1 2q-63 110 -63 328q0 406 242 406q143 0 201 -142q39 -99 39 -278q0 -167 -42 -275q-51 -129 -148 -129h-2z " glyph-name="O" horiz-adv-x="582" unicode="O"/>
<glyph d="M14 0q-14 0 -14 14v363q0 72 72 72h123q33 0 45 15q18 22 18 89q0 97 -63 97h-21v-122q0 -14 -14 -14t-14 14v136q0 14 14 14h35q59 0 80 -51q7 -18 10 -41q1 -9 1 -19v-14q0 -73 -20 -103q-21 -30 -71 -30h-123q-26 0 -35 -9q-8 -8 -8 -34v-348h117v270q0 15 14 15h74 q19 1 36 4q44 7 72 29q70 57 70 194q0 100 -42 164q-29 44 -78 58q-30 8 -97 8h-166v-261q0 -15 -15 -15q-14 0 -14 15v276q0 14 14 14h207l27 -1q30 -2 53 -9q59 -17 93 -69q47 -72 47 -180q0 -150 -80 -216q-34 -26 -85 -36q-18 -3 -40 -4l-18 -1h-44v-270q0 -14 -14 -14 h-146z" glyph-name="P" horiz-adv-x="540" unicode="P"/>
<glyph d="M342 -12q-15 0 -15 15t15 15h94l-45 57q-7 9 1 18v2l1 1q58 102 58 311q0 193 -52 284q-51 91 -161 91q-107 0 -158 -95t-51 -294q0 -149 35 -250q43 -121 124 -122h1q50 0 74 29q8 11 14 28l5 14l3 13l1 6q7 28 9 105q1 29 1 67q0 25 -1 63v35l-1 10q0 173 -14 215 q-8 23 -19 32q-8 6 -19 6q-31 0 -43 -39q-9 -29 -12 -98q-1 -26 -1 -56v-74q0 -29 1 -55q2 -80 7 -112q7 -44 24 -53q14 -6 8 -20q-6 -13 -20 -6q-18 9 -28 31q-7 16 -12 43q-5 33 -8 111q-1 27 -1 56v82q0 31 2 57q3 71 13 102q19 61 70 61q44 0 65 -59q16 -45 16 -224v-60 l1 -16v-33q0 -39 -1 -69q-1 -79 -9 -109v-6l-2 -6l-2 -7q-2 -9 -5 -17q-7 -20 -19 -35q-32 -42 -96 -43h-1q-97 0 -147 129q-42 108 -42 274q0 179 39 277q57 142 199 142q243 0 243 -405q0 -209 -60 -320l-1 -1v-1l58 -73q5 -7 1 -16q-4 -8 -13 -8h-124z" glyph-name="Q" horiz-adv-x="580" unicode="Q"/>
<glyph d="M287 0q-11 0 -13 10l-74 274h-26v-270q0 -14 -14 -14h-146q-14 0 -14 14v363q0 72 72 72h123q33 0 45 15q18 22 18 89q0 97 -63 97h-21v-122q0 -14 -14 -14t-14 14v136q0 14 14 14h35q59 0 80 -51q7 -18 10 -41q1 -9 1 -19v-14q0 -73 -20 -103q-21 -30 -71 -30h-123 q-26 0 -35 -9q-8 -8 -8 -34v-348h117v270q0 15 14 15h51q5 0 10 -5l2 -3q2 -3 2 -4l73 -273h126l-97 294v3l-1 4q0 5 7 10l5 3l4 4q70 57 70 194q0 100 -42 164q-29 44 -78 58q-30 8 -97 8h-166v-262q0 -15 -15 -15q-14 0 -14 15v277q0 14 14 14h181q35 0 53 -1q30 -3 53 -9 q59 -17 93 -70q47 -71 47 -179q0 -150 -80 -216l-2 -1l-1 -2l100 -304q2 -5 -3 -12q-3 -6 -11 -6h-157z" glyph-name="R" horiz-adv-x="558" unicode="R"/>
<glyph d="M58 76q-21 28 -37 67q-6 15 -11 33l-4 15l-4 14l-1 3q-3 12 9 17l120 48q5 2 12 -1q6 -2 7 -10q18 -83 58 -95q31 -9 52 8q24 18 24 53q0 48 -50 72q-12 6 -6 19q5 13 19 7q29 -15 45 -33q21 -26 21 -65q0 -49 -36 -76q-32 -25 -77 -13q-33 10 -52 42q-14 22 -23 58 l-91 -37q10 -34 19 -56q13 -33 32 -56q50 -61 143 -61q62 0 106 21t71 69q26 48 24 104q-4 107 -93 143q-34 14 -95 28l-35 8l-35 9q-38 11 -64 27q-66 38 -80 118q-10 54 5 101q12 36 36 65q65 78 170 78q161 0 210 -180q3 -11 -8 -17l-112 -53q-6 -2 -12 0q-6 3 -8 10 q-6 27 -14 43q-12 22 -31 30q-43 17 -65 -27q-24 -50 24 -84q12 -9 4 -20q-9 -12 -21 -3q-31 22 -40 55q-9 32 7 64q14 30 43 42q29 11 59 -1q41 -16 58 -75l85 40q-19 63 -56 100q-48 47 -123 47q-91 0 -147 -67q-21 -26 -31 -56q-13 -41 -4 -86q12 -68 69 -101 q35 -20 123 -39q66 -15 100 -28q50 -20 79 -65t31 -105q2 -65 -28 -120q-31 -56 -83 -81q-28 -13 -65 -19q-15 -2 -30 -3q-13 -1 -24 -1q-110 0 -169 76z" glyph-name="S" horiz-adv-x="556" unicode="S"/>
<glyph d="M130 0q-14 0 -14 14v534q0 14 14 14q15 0 15 -14v-519h117v546q0 34 -13 46q-9 8 -34 8h-201q-14 0 -14 14v143q0 14 14 14h381q15 0 15 -14v-146q0 -14 -15 -14h-37q-15 0 -15 14t15 14h23v117h-352v-113h186q34 0 51 -14q24 -20 24 -69v-561q0 -14 -14 -14h-146z" glyph-name="T" horiz-adv-x="509" unicode="T"/>
<glyph d="M417 800q15 0 15 -14v-502q0 -141 -25 -200q-35 -84 -137 -84q-51 0 -86 40q-40 45 -40 124v608h-115v-488q0 -191 85 -236q12 -6 4 -18q-8 -13 -19 -7q-99 53 -99 261v502q0 14 14 14h144q15 0 15 -14v-622q0 -66 30 -103q27 -33 67 -33q81 0 109 63q23 53 23 193v488 h-114v-483q0 -108 -28 -136q-11 -11 -21 -1t0 20q20 20 20 117v497q0 14 15 14h143z" glyph-name="U" horiz-adv-x="532" unicode="U"/>
<glyph d="M542 782q-1 -3 -69 -259q-67 -254 -77 -289q-12 -43 -50 -43q-16 0 -29 10q-15 11 -20 33q-9 35 -69 262q-22 81 -45 168q-20 75 -29 107h-121l175 -742h118q15 0 15 -15q0 -14 -15 -14h-132l-2 1h-1l-1 1l-2 1h-1l-1 2l-2 1v1q-2 2 -2 4l-182 771q-1 7 3 12q4 6 11 6 h152q11 0 13 -10q1 -3 68 -255q9 -36 25 -96l6 -23l6 -23q7 -25 12 -42q24 -92 29 -109q5 -22 21 -22t22 21q6 23 65 246q10 37 23 87l12 42l5 20l5 20q24 91 31 115h-110l-73 -280q-2 -13 -17 -10q-14 2 -11 17l76 291q2 11 14 11h140q7 0 11 -6q4 -5 3 -12z" glyph-name="V" horiz-adv-x="641" unicode="V"/>
<glyph d="M788 783l-160 -772q-3 -11 -14 -11h-69q-70 4 -95 116v1l-118 589l-68 -412q-1 -12 -14 -12t-15 12l-89 477h-114l156 -742h55q22 0 37 15q20 23 33 78l19 118q1 13 16 12q14 -1 12 -17l-19 -118v-1q-26 -116 -98 -116h-66q-12 0 -15 11l-162 771q-1 7 3 12q4 6 11 6h144 q12 0 13 -12l78 -409l68 409q1 12 13 12q6 1 10 -3t5 -9l133 -666q12 -56 35 -78q15 -15 37 -15h52l154 742h-113l-88 -477q-1 -12 -13 -12q-13 0 -15 12l-78 489q-2 16 12 17t16 -12l65 -406l75 406q1 12 14 12h143q7 0 11 -6q4 -5 3 -11z" glyph-name="W" horiz-adv-x="888" unicode="W"/>
<glyph d="M434 0q-9 0 -13 8l-90 174q-6 14 6 20q14 6 20 -7l86 -166h120l-202 379q-4 6 0 13l181 350h-114l-113 -225l-2 -3l-2 -1q-10 -11 -20 0l-2 2l-1 2l-115 225h-112q42 -81 116 -224q86 -168 102 -199q22 -45 24 -71q2 -30 -19 -69l-103 -200q-4 -8 -13 -8h-153q-9 0 -12 6 q-5 8 0 15l159 318q6 13 19 7q13 -5 6 -20l-148 -297h120l100 192q16 32 15 55q-2 20 -22 59q-9 18 -47 92q-14 28 -36 71l-20 39l-20 39q-104 201 -105 203q-3 6 1 14q4 7 12 7h146q8 0 12 -8l106 -209l106 209q4 8 12 8h146q8 0 12 -7q4 -8 1 -14l-188 -365l209 -393 q4 -7 0 -14t-12 -7h-153z" glyph-name="X" horiz-adv-x="700" unicode="X"/>
<glyph d="M158 0q-14 0 -14 14v329l-143 439q-3 6 1 12t12 6h142q11 0 14 -10q88 -256 112 -325q3 -10 10 -14q5 -3 12 -3q21 0 26 16q9 25 48 146l16 47l8 23l7 23q16 49 22 68h-110l-33 -131q-3 -13 -18 -10q-13 2 -10 17l35 142q3 11 15 11h141q9 0 12 -6q4 -6 2 -12 q0 -1 -4 -13l-2 -7l-3 -7q-3 -10 -6 -19q-8 -24 -15 -46q-9 -29 -18 -54q-49 -151 -59 -182q-13 -36 -54 -36q-36 0 -50 37q-16 50 -55 164q-41 119 -53 152h-112l138 -421v-2l1 -2v-317h120v309q0 14 14 14q15 0 15 -14v-324q0 -14 -15 -14h-149z" glyph-name="Y" horiz-adv-x="565" unicode="Y"/>
<glyph d="M118 0q-7 0 -12 7q-4 7 0 14l308 589q30 58 30 112v49h-415v-100h267q8 0 12 -6q4 -7 0 -15q-235 -432 -248 -456l-2 -4q-6 -11 -10 -19q-5 -12 -9 -24q-10 -30 -10 -66v-67q0 -14 -15 -14q-14 0 -14 14v67q0 40 12 75q4 13 11 27l5 11l6 10v3q5 8 36 65q33 60 70 128 q102 186 132 243h-258q-14 0 -14 15v128q0 14 14 14h444q15 0 15 -14v-64q0 -61 -33 -125l-298 -568h302v106h-157q-14 0 -14 15q0 14 14 14h171q15 0 15 -14v-136q0 -14 -15 -14h-340z" glyph-name="Z" horiz-adv-x="572" unicode="Z"/>
<glyph d="M29 29h276v107h-175q-15 0 -15 14v402q0 14 15 14q14 0 14 -14v-387h175q15 0 15 -15v-136q0 -14 -15 -14h-305q-14 0 -14 14v564q0 35 25 60t61 26h219v107h-276v-43q0 -14 -15 -14q-14 0 -14 14v58q0 14 14 14h305q15 0 15 -14v-136q0 -15 -15 -15h-226q-26 0 -45 -17 t-19 -41v-548z" glyph-name="bracketleft" horiz-adv-x="433" unicode="["/>
<glyph d="M318 0q-7 0 -10 7l-138 351q-5 11 6 16q11 4 15 -7l136 -344h46l-296 754h-46l133 -338q2 -4 -1 -9q-2 -4 -6 -6q-10 -4 -15 6l-139 354q-1 2 0 6l2 5q3 5 9 5h71q8 0 11 -7l304 -777v-1l1 -1v-4l-1 -3l-1 -2l-1 -2l-2 -1l-2 -2h-76z" glyph-name="backslash" horiz-adv-x="500" unicode="\"/>
<glyph d="M305 771h-276v-107h175q14 0 14 -14v-402q0 -14 -14 -14q-15 0 -15 14v387h-175q-14 0 -14 15v136q0 14 14 14h305q14 0 14 -14v-564q0 -35 -25 -60t-61 -26h-218v-107h276v43q0 14 14 14t14 -14v-58q0 -14 -14 -14h-305q-14 0 -14 14v136q0 15 14 15h227q25 0 44 17 q20 17 20 41v548z" glyph-name="bracketright" horiz-adv-x="434" unicode="]"/>
<glyph d="M1 528q2 3 17 38q3 7 7 17l8 19q11 25 18 42q48 111 53 122q11 24 33 24q24 0 36 -24q7 -14 48 -110q13 -31 30 -73l7 -16l3 -7l3 -6l8 -20h84l-111 246q-4 10 4 14q4 2 9 1q4 -1 6 -5l117 -262q2 -5 0 -10q-3 -5 -9 -5h-107q-6 0 -8 6q-1 1 -15 35q-8 19 -15 35 q-9 21 -17 40q-22 50 -35 80q-17 39 -21 47q-6 14 -16 14q-11 0 -16 -13q-6 -15 -43 -99q-39 -90 -53 -124h76l35 88q1 4 5 5q4 2 7 0q9 -4 6 -13l-37 -95q-2 -6 -9 -6h-98q-6 0 -9 5l-1 3v7z" glyph-name="asciicircum" horiz-adv-x="482" unicode="^"/>
<glyph d="M16 0q-16 0 -16 15v123q0 16 16 16q15 0 15 -16v-107h460q15 0 15 -16q0 -15 -15 -15h-475zM626 15q0 -15 -16 -15q-15 0 -15 15v107h-461q-15 0 -15 16t15 16h476q16 0 16 -16v-123z" glyph-name="underscore" horiz-adv-x="776" unicode="_"/>
<glyph d="M170 903l-28 71l-108 -43l23 -58l54 22q13 4 19 -9t-8 -18l-68 -26q-13 -5 -19 8l-33 84q-6 12 8 18l135 54q13 5 18 -8l34 -84q5 -13 -8 -19q-14 -5 -19 8z" glyph-name="grave" horiz-adv-x="211" unicode="`"/>
<glyph d="M550 6q-4 -6 -11 -6h-149l-3 1l-3 2l-3 5l-1 2l-1 2l-21 110l-8 44h-63q-14 0 -14 15q0 14 14 14h74q5 1 10 -3q5 -3 6 -9l9 -55l19 -99h116l-66 273l-113 469h-132l-112 -469l-65 -273h117l40 220q13 71 84 71h48l-45 242l-31 -169q-3 -14 -17 -11q-15 3 -12 16l45 246 q2 11 15 11q12 0 13 -11l63 -335v-7l-1 -2l-2 -3l-2 -3l-3 -1l-5 -2h-63l-2 1l-1 -1q-30 0 -41 -10q-10 -9 -15 -38l-43 -231v-2l-1 -2l-1 -3l-3 -2q-3 -3 -5 -3h-151q-7 0 -11 6q-4 5 -3 12l70 291l115 480q3 11 14 11h155q10 0 13 -11l116 -480l70 -291q0 -9 -3 -12z" glyph-name="a" horiz-adv-x="632" unicode="a"/>
<glyph d="M14 0q-14 0 -14 14v555q0 14 14 14q15 0 15 -14v-540h242q23 2 42 5q51 10 77 39q22 24 35 55q17 42 17 94q0 92 -40 140q-14 17 -33 29q-7 4 -15 7l-7 3l-5 2q-10 3 -10 13t8 14l12 5q8 4 14 8q15 10 26 25q30 40 30 118q0 51 -15 89q-6 15 -14 28q-6 10 -14 20 q-26 33 -65 42q-27 6 -102 6h-183v-95h183q94 0 94 -112v-13q0 -8 -1 -15q-3 -20 -10 -34q-22 -42 -83 -42h-78l-5 -2q-6 -4 -6 -12v-75q0 -14 15 -14h72q38 0 55 -6q24 -8 37 -33q8 -13 12 -29q5 -20 5 -42q0 -118 -103 -118h-107q-15 0 -15 13q0 15 15 15h107q39 0 56 17 q18 20 18 73q0 18 -4 34q-3 13 -9 24q-9 15 -22 20q-12 4 -45 4h-72q-18 0 -31 12t-13 30v75q0 20 14 32q12 11 30 11h74q41 0 56 23q10 16 10 52q0 84 -66 84h-198q-14 0 -14 14v124q0 14 14 14h198q81 0 111 -7q47 -12 79 -51q48 -58 48 -156q0 -72 -23 -117 q-17 -33 -48 -51q38 -21 61 -59q31 -53 31 -137q0 -58 -20 -106q-15 -35 -41 -63q-30 -34 -88 -46q-22 -5 -47 -6q-9 -1 -20 -1h-241z" glyph-name="b" horiz-adv-x="571" unicode="b"/>
<glyph d="M186 51q-16 28 -22 109q-2 32 -3 73q-1 30 -1 70v84q0 67 4 121q6 70 18 105q22 61 75 61h1q41 0 56 -55q10 -35 12 -117l128 11q-21 269 -200 269q-80 0 -131 -52q-51 -51 -73 -155q-17 -77 -17 -180q0 -237 83 -325q10 -11 -1 -22q-9 -10 -20 1q-91 96 -91 346 q0 108 19 191q24 109 80 166q59 60 150 60h1q89 0 145 -59q74 -78 86 -252q0 -15 -14 -16l-157 -14q-5 0 -11 4q-5 4 -5 11v5q-1 32 -2 51q-2 30 -6 50q-9 52 -33 52q-33 0 -48 -40q-12 -35 -17 -114q-2 -28 -3 -61v-126q0 -111 7 -173q5 -47 14 -64q28 -48 72 -48h1 q85 0 130 98q16 36 26 83q7 34 11 70l-125 9v-12l-1 -18v-19q-2 -21 -5 -38q-10 -43 -37 -62q-10 -8 -20 4q-8 12 4 21q19 13 25 49q3 14 4 32l1 16v16q0 20 1 28q1 14 15 14l154 -12q13 0 13 -16q-1 -15 -3 -32q-2 -21 -6 -42q-10 -55 -29 -98q-52 -121 -159 -121 q-61 0 -96 63z" glyph-name="c" horiz-adv-x="584" unicode="c"/>
<glyph d="M476 410q0 -251 -110 -356q-25 -23 -59 -37q-44 -17 -99 -17h-194q-14 0 -14 14q0 15 14 15h194q48 0 87 15q30 11 51 30q102 98 102 336q0 98 -20 173q-26 98 -83 143q-58 45 -192 45h-124v-553q0 -35 13 -46q9 -8 34 -8h127q24 0 39 7q22 9 31 34q9 28 14 93q2 25 3 54 v43q0 163 -25 212q-16 30 -62 30h-29v-394q0 -14 -14 -14t-14 14v408q0 15 14 15h43q65 0 89 -48q27 -57 27 -223v-25q-1 -28 -2 -55q-5 -83 -17 -119q-9 -26 -28 -41q-26 -20 -69 -20h-127q-34 0 -51 14q-25 20 -25 69v568q0 14 14 14h139q75 0 113 -8q55 -10 96 -43 q114 -89 114 -339z" glyph-name="d" horiz-adv-x="576" unicode="d"/>
<glyph d="M14 0q-14 0 -14 14v256q0 35 25 60q25 26 61 27h237v100h-160q-14 0 -14 14v179q0 15 14 15h213v106h-347v-368q0 -13 -15 -13q-14 0 -14 13v383q0 14 14 14h376q15 0 15 -14v-136q0 -14 -15 -14h-212v-150h159q14 0 14 -15v-129q0 -13 -14 -13h-247q-26 0 -43 -18 q-18 -18 -18 -42v-240h347v106h-213q-14 0 -14 15v99q0 14 14 14q15 0 15 -14v-85h212q15 0 15 -14v-136q0 -14 -15 -14h-376z" glyph-name="e" unicode="e"/>
<glyph d="M14 0q-14 0 -14 14v395q0 14 14 14q15 0 15 -14v-380h121v313q0 15 14 15h162v100h-238q-37 0 -62 25q-26 26 -26 63v241q0 14 14 14h355q14 0 14 -14v-136q0 -14 -14 -14h-191v-71q0 -15 -14 -15t-14 15v85q0 15 14 15h190v106h-325v-226q0 -25 17 -42t42 -17h251 q15 0 15 -15v-129q0 -13 -15 -13h-161v-315q0 -14 -14 -14h-150z" glyph-name="f" horiz-adv-x="483" unicode="f"/>
<glyph d="M279 -11l-10 1q-58 9 -87 62q-16 28 -22 109q-2 31 -3 72q-1 30 -1 70v84q0 69 4 121q5 71 18 105q21 61 75 61h1q41 0 56 -55q10 -35 12 -117l128 11q-21 269 -200 269q-80 0 -131 -52q-51 -51 -73 -155q-17 -77 -17 -180q0 -237 83 -325q10 -10 -1 -21q-10 -10 -20 0 q-91 96 -91 346q0 108 19 191q24 109 80 166q59 60 151 60q88 0 145 -59q74 -78 86 -252q0 -15 -14 -16l-157 -14q-5 0 -11 4q-5 4 -5 11v5q-1 33 -2 52q-2 29 -6 49q-9 53 -33 53q-34 0 -48 -41q-12 -35 -17 -114q-2 -28 -3 -61v-126q0 -111 7 -173q5 -47 14 -64 q24 -41 68 -48q36 -5 77 13q37 16 63 43q23 22 32 37q4 5 5 9l1 2v216l-156 16v-47l31 -4q12 -2 12 -15v-183q0 -15 -14 -15q-15 0 -15 15v171l-30 4q-13 1 -13 15v75q0 8 5 12q4 3 11 3l184 -19q14 -1 14 -14v-229q0 -14 -15 -34q-11 -15 -32 -36q-64 -65 -144 -65z" glyph-name="g" horiz-adv-x="580" unicode="g"/>
<glyph d="M162 -1l-148 1q-14 0 -14 14v771q0 14 14 14h149q14 0 14 -14v-361q0 -41 10 -53q11 -14 49 -14h50q15 0 15 -15v-313h119v741h-119v-334q0 -14 -15 -14q-14 0 -14 14v349q0 14 14 14h148q16 0 16 -14v-771q0 -14 -16 -14h-148q-14 0 -14 14v314h-36q-52 0 -71 25 q-16 20 -16 71v346h-120v-741l120 -1v239q0 15 14 15t14 -15v-253q0 -7 -4 -11t-10 -4h-1z" glyph-name="h" horiz-adv-x="549" unicode="h"/>
<glyph d="M14 0q-14 0 -14 14v535q0 49 25 68q17 14 50 14h18q14 0 14 -14q0 -15 -14 -15h-18q-24 0 -33 -8q-13 -11 -13 -45v-520h116v742h-116v-73q0 -14 -15 -14q-14 0 -14 14v88q0 14 14 14h144q15 0 15 -14v-772q0 -14 -15 -14h-144z" glyph-name="i" horiz-adv-x="272" unicode="i"/>
<glyph d="M71 8q-18 3 -35 7q-14 3 -26 7q-10 3 -10 13v136q0 7 5 11q4 3 11 3q3 0 13 -3l18 -4q13 -2 25 -4q34 -4 66 0q30 3 39 19q9 18 9 82v277q0 49 24 68q18 14 52 14h20q13 0 13 -15q0 -14 -13 -14h-20q-25 0 -34 -8q-13 -11 -13 -45v-277q0 -68 -12 -93q-16 -32 -63 -37 q-31 -3 -65 0q-12 2 -26 4l-11 2l-9 2v-107q27 -7 57 -11q43 -6 88 -6q107 0 140 79q20 47 20 178v485h-119v-71q0 -15 -14 -15q-15 0 -15 15v86q0 14 15 14h149q14 0 14 -14v-549q-1 -28 -3 -50q-5 -55 -21 -92q-41 -95 -166 -95q-54 0 -103 8z" glyph-name="j" horiz-adv-x="464" unicode="j"/>
<glyph d="M378 0q-8 0 -12 6q-1 3 -28 45l-6 10l-7 10q-8 13 -14 22q-18 28 -32 49q-86 134 -102 161q-28 53 -28 136v332h-120v-742h120v154q0 14 14 14q15 0 15 -14v-169q0 -14 -15 -14h-149q-14 0 -14 14v772q0 14 14 14h149q15 0 15 -14v-347q0 -74 24 -121q15 -25 91 -144 q25 -39 56 -89q6 -8 12 -18l5 -8l5 -8q12 -17 15 -22h128q-8 12 -26 42l-8 13l-9 14q-10 17 -18 30q-49 80 -84 137q-108 177 -124 210q-11 23 -11 51q0 21 5 38q7 20 67 119q20 33 43 71q9 13 16 25q7 10 9 15q4 6 12 6h153q8 0 12 -7q5 -7 0 -15l-175 -309q-7 -13 -20 -6 t-6 20l164 288h-120q-44 -70 -80 -130q-43 -72 -48 -86q-4 -13 -4 -30q0 -21 8 -37q19 -37 151 -254q23 -37 48 -79q20 -33 41 -67q9 -13 17 -27q6 -10 13 -21l11 -18q4 -7 0 -15q-3 -7 -12 -7h-161z" glyph-name="k" horiz-adv-x="652" unicode="k"/>
<glyph d="M14 0q-14 0 -14 14q0 15 14 15h313v113h-251q-34 0 -51 14q-25 20 -25 69v561q0 14 14 14h147q14 0 14 -14l1 -536q0 -15 -14 -15q-15 0 -15 15l-1 521h-117v-546q0 -34 13 -46q9 -8 34 -8h266q14 0 14 -14v-143q0 -14 -14 -14h-328z" glyph-name="l" horiz-adv-x="456" unicode="l"/>
<glyph d="M585 800q14 0 14 -14v-772q0 -14 -14 -14h-149q-14 0 -14 14v290q0 50 -4 67q-5 27 -24 50l-252 310l-5 6l-4 5q-24 29 -61 29h-43v-742h113v483l1 3v3l4 4q3 3 6 3h2l2 1l3 -1l2 -1l3 -1l2 -2v-1l129 -158q9 -12 -2 -20q-12 -9 -20 1l-104 128v-457q0 -14 -14 -14h-142 q-14 0 -14 14v772q0 14 14 14h58q34 0 54 -12q8 -5 16 -13l12 -15l9 -10l253 -311q34 -41 34 -135v-275h120v742h-41q-34 0 -40 -2q-8 -3 -18 -19q-4 -6 -18 -29q-10 -17 -28 -47q-37 -63 -38 -64q-7 -12 -19 -4q-12 7 -5 19q2 2 39 65l15 24q8 13 13 22q14 23 17 29 q16 25 32 31q12 4 51 4h55z" glyph-name="m" horiz-adv-x="699" unicode="m"/>
<glyph d="M29 771v-742h120v480q0 2 1 5q2 3 4 4l3 2l2 1h6l3 -1l2 -1q3 -1 4 -4l2 -1l222 -424l16 -25q23 -36 75 -36h50q14 0 14 -15q0 -14 -14 -14h-50q-68 0 -100 50l-16 24v1l-195 374v-435q0 -14 -15 -14h-149q-6 0 -10 4t-4 10v772q0 14 14 14h114q63 0 96 -59l301 -545v575 h-125v-168q0 -14 -14 -14q-15 0 -15 14v183q0 14 15 14h153q14 0 14 -14v-648l-1 -2l-1 -3q-1 -3 -4 -4l-2 -2l-3 -1h-4q-3 0 -6 2l-3 2l-2 2l-1 2l-327 593q-14 25 -27 34q-16 10 -44 10h-99z" glyph-name="n" horiz-adv-x="652" unicode="n"/>
<glyph d="M300 -12q-63 1 -95 42q-12 15 -19 36q-3 7 -5 16l-2 7l-2 7l-1 6q-7 30 -8 110q-1 29 -1 68v50l1 15v44q0 180 16 225q20 60 65 60q52 0 71 -61q9 -31 12 -103q2 -25 2 -57v-83q0 -30 -1 -56q-1 -79 -7 -112q-4 -26 -12 -42q-10 -22 -29 -32q-13 -6 -19 7q-6 14 6 19 q19 10 25 53q5 33 8 113q0 26 1 55v74q-1 31 -2 56q-3 71 -12 99q-12 40 -43 40q-11 0 -19 -6q-11 -10 -19 -33q-15 -42 -15 -216v-44q-1 -38 -1 -63q0 -39 1 -68q2 -77 8 -106l2 -5l3 -14l5 -14q5 -16 14 -28q24 -29 74 -29h2q81 0 123 122q36 102 36 252q0 200 -51 295 q-52 95 -160 95q-109 0 -161 -92q-52 -91 -52 -284q0 -209 58 -313l2 -3l4 -5q5 -8 10 -15q9 -11 -1 -20q-5 -4 -11 -4q-6 1 -9 5q-7 8 -13 17q-2 3 -3 6l-2 2l-1 2q-63 110 -63 328q0 406 242 406q143 0 201 -142q39 -99 39 -278q0 -167 -42 -275q-51 -129 -148 -129h-2z " glyph-name="o" horiz-adv-x="592" unicode="o"/>
<glyph d="M14 0q-14 0 -14 14v363q0 72 72 72h123q33 0 45 15q18 22 18 89q0 97 -63 97h-21v-122q0 -14 -14 -14t-14 14v136q0 14 14 14h35q59 0 80 -51q7 -18 10 -41q1 -9 1 -19v-14q0 -73 -20 -103q-21 -30 -71 -30h-123q-26 0 -35 -9q-8 -8 -8 -34v-348h117v270q0 15 14 15h74 q19 1 36 4q44 7 72 29q70 57 70 194q0 100 -42 164q-29 44 -78 58q-30 8 -97 8h-166v-261q0 -15 -15 -15q-14 0 -14 15v276q0 14 14 14h207l27 -1q30 -2 53 -9q59 -17 93 -69q47 -72 47 -180q0 -150 -80 -216q-34 -26 -85 -36q-18 -3 -40 -4l-18 -1h-44v-270q0 -14 -14 -14 h-146z" glyph-name="p" horiz-adv-x="540" unicode="p"/>
<glyph d="M342 -12q-15 0 -15 15t15 15h94l-45 57q-7 9 1 18v2l1 1q58 102 58 311q0 193 -52 284q-51 91 -161 91q-107 0 -158 -95t-51 -294q0 -149 35 -250q43 -121 124 -122h1q50 0 74 29q8 11 14 28l5 14l3 13l1 6q7 28 9 105q1 29 1 67q0 25 -1 63v35l-1 10q0 173 -14 215 q-8 23 -19 32q-8 6 -19 6q-31 0 -43 -39q-9 -29 -12 -98q-1 -26 -1 -56v-74q0 -29 1 -55q2 -80 7 -112q7 -44 24 -53q14 -6 8 -20q-6 -13 -20 -6q-18 9 -28 31q-7 16 -12 43q-5 33 -8 111q-1 27 -1 56v82q0 31 2 57q3 71 13 102q19 61 70 61q44 0 65 -59q16 -45 16 -224v-60 l1 -16v-33q0 -39 -1 -69q-1 -79 -9 -109v-6l-2 -6l-2 -7q-2 -9 -5 -17q-7 -20 -19 -35q-32 -42 -96 -43h-1q-97 0 -147 129q-42 108 -42 274q0 179 39 277q57 142 199 142q243 0 243 -405q0 -209 -60 -320l-1 -1v-1l58 -73q5 -7 1 -16q-4 -8 -13 -8h-124z" glyph-name="q" horiz-adv-x="580" unicode="q"/>
<glyph d="M287 0q-11 0 -13 10l-74 274h-26v-270q0 -14 -14 -14h-146q-14 0 -14 14v363q0 72 72 72h123q33 0 45 15q18 22 18 89q0 97 -63 97h-21v-122q0 -14 -14 -14t-14 14v136q0 14 14 14h35q59 0 80 -51q7 -18 10 -41q1 -9 1 -19v-14q0 -73 -20 -103q-21 -30 -71 -30h-123 q-26 0 -35 -9q-8 -8 -8 -34v-348h117v270q0 15 14 15h51q5 0 10 -5l2 -3q2 -3 2 -4l73 -273h126l-97 294v3l-1 4q0 5 7 10l5 3l4 4q70 57 70 194q0 100 -42 164q-29 44 -78 58q-30 8 -97 8h-166v-262q0 -15 -15 -15q-14 0 -14 15v277q0 14 14 14h181q35 0 53 -1q30 -3 53 -9 q59 -17 93 -70q47 -71 47 -179q0 -150 -80 -216l-2 -1l-1 -2l100 -304q2 -5 -3 -12q-3 -6 -11 -6h-157z" glyph-name="r" horiz-adv-x="558" unicode="r"/>
<glyph d="M58 76q-21 28 -37 67q-6 15 -11 33l-4 15l-4 14l-1 3q-3 12 9 17l120 48q5 2 12 -1q6 -2 7 -10q18 -83 58 -95q31 -9 52 8q24 18 24 53q0 48 -50 72q-12 6 -6 19q5 13 19 7q29 -15 45 -33q21 -26 21 -65q0 -49 -36 -76q-32 -25 -77 -13q-33 10 -52 42q-14 22 -23 58 l-91 -37q10 -34 19 -56q13 -33 32 -56q50 -61 143 -61q62 0 106 21t71 69q26 48 24 104q-4 107 -93 143q-34 14 -95 28l-35 8l-35 9q-38 11 -64 27q-66 38 -80 118q-10 54 5 101q12 36 36 65q65 78 170 78q161 0 210 -180q3 -11 -8 -17l-112 -53q-6 -2 -12 0q-6 3 -8 10 q-6 27 -14 43q-12 22 -31 30q-43 17 -65 -27q-24 -50 24 -84q12 -9 4 -20q-9 -12 -21 -3q-31 22 -40 55q-9 32 7 64q14 30 43 42q29 11 59 -1q41 -16 58 -75l85 40q-19 63 -56 100q-48 47 -123 47q-91 0 -147 -67q-21 -26 -31 -56q-13 -41 -4 -86q12 -68 69 -101 q35 -20 123 -39q66 -15 100 -28q50 -20 79 -65t31 -105q2 -65 -28 -120q-31 -56 -83 -81q-28 -13 -65 -19q-15 -2 -30 -3q-13 -1 -24 -1q-110 0 -169 76z" glyph-name="s" horiz-adv-x="556" unicode="s"/>
<glyph d="M130 0q-14 0 -14 14v534q0 14 14 14q15 0 15 -14v-519h117v546q0 34 -13 46q-9 8 -34 8h-201q-14 0 -14 14v143q0 14 14 14h381q15 0 15 -14v-146q0 -14 -15 -14h-37q-15 0 -15 14t15 14h23v117h-352v-113h186q34 0 51 -14q24 -20 24 -69v-561q0 -14 -14 -14h-146z" glyph-name="t" horiz-adv-x="509" unicode="t"/>
<glyph d="M417 800q15 0 15 -14v-502q0 -141 -25 -200q-35 -84 -137 -84q-51 0 -86 40q-40 45 -40 124v608h-115v-488q0 -191 85 -236q12 -6 4 -18q-8 -13 -19 -7q-99 53 -99 261v502q0 14 14 14h144q15 0 15 -14v-622q0 -66 30 -103q27 -33 67 -33q81 0 109 63q23 53 23 193v488 h-114v-483q0 -108 -28 -136q-11 -11 -21 -1t0 20q20 20 20 117v497q0 14 15 14h143z" glyph-name="u" horiz-adv-x="532" unicode="u"/>
<glyph d="M542 782q-1 -3 -69 -259q-67 -254 -77 -289q-12 -43 -50 -43q-16 0 -29 10q-15 11 -20 33q-9 35 -69 262q-22 81 -45 168q-20 75 -29 107h-121l175 -742h118q15 0 15 -15q0 -14 -15 -14h-132l-2 1h-1l-1 1l-2 1h-1l-1 2l-2 1v1q-2 2 -2 4l-182 771q-1 7 3 12q4 6 11 6 h152q11 0 13 -10q1 -3 68 -255q9 -36 25 -96l6 -23l6 -23q7 -25 12 -42q24 -92 29 -109q5 -22 21 -22t22 21q6 23 65 246q10 37 23 87l12 42l5 20l5 20q24 91 31 115h-110l-73 -280q-2 -13 -17 -10q-14 2 -11 17l76 291q2 11 14 11h140q7 0 11 -6q4 -5 3 -12z" glyph-name="v" horiz-adv-x="641" unicode="v"/>
<glyph d="M788 783l-160 -772q-3 -11 -14 -11h-69q-70 4 -95 116v1l-118 589l-68 -412q-1 -12 -14 -12t-15 12l-89 477h-114l156 -742h55q22 0 37 15q20 23 33 78l19 118q1 13 16 12q14 -1 12 -17l-19 -118v-1q-26 -116 -98 -116h-66q-12 0 -15 11l-162 771q-1 7 3 12q4 6 11 6h144 q12 0 13 -12l78 -409l68 409q1 12 13 12q6 1 10 -3t5 -9l133 -666q12 -56 35 -78q15 -15 37 -15h52l154 742h-113l-88 -477q-1 -12 -13 -12q-13 0 -15 12l-78 489q-2 16 12 17t16 -12l65 -406l75 406q1 12 14 12h143q7 0 11 -6q4 -5 3 -11z" glyph-name="w" horiz-adv-x="888" unicode="w"/>
<glyph d="M434 0q-9 0 -13 8l-90 174q-6 14 6 20q14 6 20 -7l86 -166h120l-202 379q-4 6 0 13l181 350h-114l-113 -225l-2 -3l-2 -1q-10 -11 -20 0l-2 2l-1 2l-115 225h-112q42 -81 116 -224q86 -168 102 -199q22 -45 24 -71q2 -30 -19 -69l-103 -200q-4 -8 -13 -8h-153q-9 0 -12 6 q-5 8 0 15l159 318q6 13 19 7q13 -5 6 -20l-148 -297h120l100 192q16 32 15 55q-2 20 -22 59q-9 18 -47 92q-14 28 -36 71l-20 39l-20 39q-104 201 -105 203q-3 6 1 14q4 7 12 7h146q8 0 12 -8l106 -209l106 209q4 8 12 8h146q8 0 12 -7q4 -8 1 -14l-188 -365l209 -393 q4 -7 0 -14t-12 -7h-153z" glyph-name="x" horiz-adv-x="700" unicode="x"/>
<glyph d="M158 0q-14 0 -14 14v329l-143 439q-3 6 1 12t12 6h142q11 0 14 -10q88 -256 112 -325q3 -10 10 -14q5 -3 12 -3q21 0 26 16q9 25 48 146l16 47l8 23l7 23q16 49 22 68h-110l-33 -131q-3 -13 -18 -10q-13 2 -10 17l35 142q3 11 15 11h141q9 0 12 -6q4 -6 2 -12 q0 -1 -4 -13l-2 -7l-3 -7q-3 -10 -6 -19q-8 -24 -15 -46q-9 -29 -18 -54q-49 -151 -59 -182q-13 -36 -54 -36q-36 0 -50 37q-16 50 -55 164q-41 119 -53 152h-112l138 -421v-2l1 -2v-317h120v309q0 14 14 14q15 0 15 -14v-324q0 -14 -15 -14h-149z" glyph-name="y" horiz-adv-x="565" unicode="y"/>
<glyph d="M118 0q-7 0 -12 7q-4 7 0 14l308 589q30 58 30 112v49h-415v-100h267q8 0 12 -6q4 -7 0 -15q-235 -432 -248 -456l-2 -4q-6 -11 -10 -19q-5 -12 -9 -24q-10 -30 -10 -66v-67q0 -14 -15 -14q-14 0 -14 14v67q0 40 12 75q4 13 11 27l5 11l6 10v3q5 8 36 65q33 60 70 128 q102 186 132 243h-258q-14 0 -14 15v128q0 14 14 14h444q15 0 15 -14v-64q0 -61 -33 -125l-298 -568h302v106h-157q-14 0 -14 15q0 14 14 14h171q15 0 15 -14v-136q0 -14 -15 -14h-340z" glyph-name="z" horiz-adv-x="572" unicode="z"/>
<glyph d="M186 30q16 0 16 -15t-16 -15h-114q-39 0 -55 17q-17 18 -17 61q0 29 12 359q2 50 5 122l1 29l1 28q2 32 2 51q4 108 5 118v6l1 1l1 2q1 2 4 4h2v1h2l2 1h123q14 0 14 -15v-3l2 -51q0 -15 -15 -15t-15 14l-1 40h-92q-1 -28 -5 -142q-1 -19 -2 -52l-1 -27l-1 -28 q-2 -69 -4 -116q-11 -300 -11 -327q0 -32 8 -41q8 -7 34 -7h114zM134 657q47 -7 48 -79q0 -1 1 -7v-16q1 -23 1 -32l14 -409q0 -15 -15 -15q-14 0 -14 14l-15 409q0 12 -1 55q-1 30 -8 43q-3 4 -7 6q-3 2 -8 2h-29q-15 0 -15 14q0 15 15 15h33z" glyph-name="exclamdown" horiz-adv-x="301" unicode=""/>
<glyph d="M319 855q-5 10 6 15q21 9 30 29q10 21 1 43t-29 31q-22 9 -45 1q-21 -8 -32 -29q-10 -22 -1 -43q9 -22 31 -31q10 -5 6 -15q-5 -11 -16 -6q-31 13 -43 43q-12 31 2 61t45 42q30 12 62 -1q30 -14 42 -45t-1 -60q-13 -28 -43 -41q-2 -1 -4 -1q-8 0 -11 7zM99 855 q-5 10 6 15q21 9 30 29q10 21 1 43t-29 31q-22 9 -45 1q-21 -8 -32 -29q-10 -22 -1 -43q9 -22 31 -31q10 -5 6 -15q-5 -11 -16 -6q-31 13 -43 43q-12 31 2 61t45 42q30 12 62 -1q30 -14 42 -45t-1 -60q-13 -28 -43 -41q-2 -1 -4 -1q-8 0 -11 7z" glyph-name="dieresis" horiz-adv-x="394" unicode=""/>
<glyph d="M318 115q-2 1 -45 21q-25 11 -43 19q-26 12 -48 22q-132 60 -146 67q-29 14 -29 42q0 29 29 44q17 10 131 61q39 17 87 39q16 7 34 15q6 2 13 6l6 2l4 2v106l-292 -139q-11 -6 -17 6q-5 11 7 17l309 148q7 3 12 -1q6 -4 6 -11v-134q0 -9 -7 -11q-1 0 -41 -18 q-45 -20 -90 -41q-132 -59 -150 -69q-16 -9 -16 -22q0 -12 15 -20q10 -4 117 -53l43 -19q24 -11 41 -19q44 -20 63 -29v96l-103 43q-12 4 -7 17q4 10 16 6l112 -46q7 -2 7 -12v-124q0 -6 -6 -10q-3 -2 -7 -2zM678 115q-2 1 -45 21q-25 11 -43 19q-26 12 -48 22 q-132 60 -146 67q-29 14 -29 42q0 29 29 44q17 10 131 61q39 17 87 39q16 7 34 15q6 2 13 6l6 2l4 2v106l-292 -139q-11 -6 -17 6q-5 11 7 17l309 148q7 3 12 -1q6 -4 6 -11v-134q0 -9 -7 -11q-1 0 -41 -18q-45 -20 -90 -41q-132 -59 -150 -69q-16 -9 -16 -22q0 -12 15 -20 q10 -4 117 -53l43 -19q24 -11 41 -19q44 -20 63 -29v96l-103 43q-12 4 -7 17q4 10 16 6l112 -46q7 -2 7 -12v-124q0 -6 -6 -10q-3 -2 -7 -2z" glyph-name="guillemotleft" horiz-adv-x="780" unicode=""/>
<glyph d="M136 862l31 71l-107 46l-25 -57l53 -23q14 -6 8 -19q-6 -14 -19 -8l-66 29q-14 6 -8 19l36 83q6 14 19 8l133 -57q14 -6 8 -20l-36 -83q-6 -13 -19 -7t-8 18z" glyph-name="acute" horiz-adv-x="206" unicode=""/>
<glyph d="M99 855q-5 10 6 15q21 9 30 29q10 21 1 43t-29 31q-22 9 -45 1q-21 -8 -32 -29q-10 -22 -1 -43q9 -22 31 -31q10 -5 6 -15q-5 -11 -16 -6q-31 13 -43 43q-12 31 2 61t45 42q30 12 62 -1q30 -14 42 -45t-1 -60q-13 -28 -43 -41q-2 -1 -4 -1q-8 0 -11 7z" glyph-name="ordmasculine" horiz-adv-x="260" unicode=""/>
<glyph d="M373 114q-4 0 -7 2q-5 4 -5 10v124q0 10 7 12l112 46q12 4 16 -6q5 -13 -7 -17l-104 -43v-96q20 9 64 29q17 8 41 19l43 19q107 49 116 53q16 8 16 20q0 13 -16 22q-18 10 -150 69q-46 21 -90 41q-40 18 -41 18q-7 2 -7 11v134q0 7 5 11t13 1l309 -148q12 -6 6 -17 q-6 -12 -17 -6l-292 139v-106l5 -2l5 -2q8 -4 14 -6q18 -8 34 -15q48 -22 86 -39q115 -51 132 -61q28 -15 28 -44q0 -28 -28 -42q-14 -7 -146 -67q-22 -10 -49 -22q-17 -8 -42 -19q-43 -20 -46 -21zM13 114q-4 0 -7 2q-5 4 -5 10v124q0 10 7 12l112 46q12 4 16 -6 q5 -13 -7 -17l-104 -43v-96q20 9 64 29q17 8 41 19l43 19q107 49 116 53q16 8 16 20q0 13 -16 22q-18 10 -150 69q-46 21 -90 41q-40 18 -41 18q-7 2 -7 11v134q0 7 5 11t13 1l309 -148q12 -6 6 -17q-6 -12 -17 -6l-292 139v-106l5 -2l5 -2q8 -4 14 -6q18 -8 34 -15 q48 -22 86 -39q115 -51 132 -61q28 -15 28 -44q0 -28 -28 -42q-14 -7 -146 -67q-22 -10 -49 -22q-17 -8 -42 -19q-43 -20 -46 -21z" glyph-name="guillemotright" horiz-adv-x="780" unicode=""/>
<glyph d="M29 338q-12 8 -4 20t21 25l11 11l12 10l11 10l12 11q31 30 39 114l1 3l5 244v5q3 9 12 9h116q13 0 13 -14l3 -53q0 -15 -14 -15h-1q-14 0 -14 14l-2 39h-85l-5 -234q-8 -94 -48 -132l-13 -12l-12 -11q-28 -24 -38 -40q-4 -6 -13 -6q-4 0 -7 2zM355 63q-37 -38 -92 -54 q-19 -5 -40 -7q-8 -1 -15 -2h-11q-8 0 -16 1q-11 0 -22 2q-28 5 -53 16q-70 31 -98 105v1q-25 90 24 146q18 21 48 38q12 7 26 14l13 5l11 6q8 3 16 7l7 4l6 3q61 36 81 78q16 34 16 103v50q0 24 -6 37q-2 5 -5 8q-2 3 -5 4h-33q-14 0 -14 14q0 15 14 15h36q2 0 6 -2 q36 -15 36 -76v-50q0 -78 -20 -119q-24 -47 -92 -87q-11 -6 -32 -15l-22 -10l-23 -12q-26 -15 -41 -32q-41 -46 -20 -120q24 -63 84 -89q21 -10 45 -14q10 -1 19 -2h23q7 0 14 1q18 2 35 7q48 14 79 46q52 55 52 157l-99 15q-3 -62 -15 -86q-17 -35 -63 -35q-68 0 -68 99 q0 14 15 14q13 0 13 -14q0 -46 15 -62q5 -6 13 -7l6 -1l6 -1q30 0 40 22q8 19 11 89q0 7 5 10q5 4 11 3l126 -20q5 0 9 -5q3 -4 3 -9q5 -122 -59 -189z" glyph-name="questiondown" horiz-adv-x="515" unicode=""/>
<glyph d="M329 848l16 74l-115 26l-13 -61l58 -13q14 -2 11 -16t-17 -12l-71 16q-14 3 -11 17l18 88q2 14 16 11l144 -32q13 -2 11 -16l-19 -88q-2 -14 -16 -11t-12 17zM550 5q-3 -5 -11 -5h-150l-2 1l-3 1l-2 3l-1 3l-1 2l-1 2l-21 110l-8 44h-63q-14 0 -14 15q0 14 14 14h74 q5 1 10 -3q5 -3 6 -9l9 -56l19 -99h116l-66 274l-113 468h-132l-112 -468l-65 -274h116l40 220q13 71 84 71h48l-44 243l-32 -170q-2 -14 -16 -11q-15 3 -12 17l45 245q2 12 15 12q12 0 13 -12l63 -335v-6l-2 -3l-2 -3l-2 -2l-2 -2l-5 -1h-67q-29 0 -40 -10t-16 -39 l-42 -230v-2l-1 -2l-1 -3l-3 -2q-3 -3 -5 -3h-151q-7 0 -11 5q-4 6 -3 12l69 291l116 481q2 11 14 11h154q11 0 14 -11l115 -480l71 -292q0 -9 -3 -12z" glyph-name="Agrave" horiz-adv-x="633" unicode=""/>
<glyph d="M349 891l-28 71l-109 -44l23 -56l54 21q14 5 20 -8q2 -5 -1 -11q-3 -5 -8 -7l-67 -27q-14 -4 -20 8l-33 84q-6 13 8 18l137 53q12 4 17 -8l35 -84q5 -13 -8 -18q-14 -4 -20 8zM550 5q-3 -5 -11 -5h-150l-2 1l-3 1l-2 3l-1 3l-1 2l-1 2l-21 110l-8 44h-63q-14 0 -14 15 q0 14 14 14h74q5 1 10 -3q5 -3 6 -9l9 -56l19 -99h116l-66 274l-113 468h-132l-112 -468l-65 -274h116l40 220q13 71 84 71h48l-44 243l-32 -170q-2 -14 -16 -11q-15 3 -12 17l45 245q2 12 15 12q12 0 13 -12l63 -335v-6l-2 -3l-2 -3l-2 -2l-2 -2l-5 -1h-67q-29 0 -40 -10 t-16 -39l-42 -230v-2l-1 -2l-1 -3l-3 -2q-3 -3 -5 -3h-151q-7 0 -11 5q-4 6 -3 12l69 291l116 481q2 11 14 11h154q11 0 14 -11l115 -480l71 -292q0 -9 -3 -12z" glyph-name="Aacute" horiz-adv-x="633" unicode=""/>
<glyph d="M401 855q-5 10 6 15q21 9 30 29q10 21 1 43t-29 31q-22 9 -45 1q-21 -8 -32 -29q-10 -22 -1 -43q9 -22 31 -31q10 -5 6 -15q-5 -11 -16 -6q-31 13 -43 43q-12 31 2 61t45 42q30 12 62 -1q30 -14 42 -45t-1 -60q-13 -28 -43 -41q-2 -1 -4 -1q-8 0 -11 7zM181 855 q-5 10 6 15q21 9 30 29q10 21 1 43t-29 31q-22 9 -45 1q-21 -8 -32 -29q-10 -22 -1 -43q9 -22 31 -31q10 -5 6 -15q-5 -11 -16 -6q-31 13 -43 43q-12 31 2 61t45 42q30 12 62 -1q30 -14 42 -45t-1 -60q-13 -28 -43 -41q-2 -1 -4 -1q-8 0 -11 7zM550 5q-3 -5 -11 -5h-150 l-2 1l-3 1l-2 3l-1 3l-1 2l-1 2l-21 110l-8 44h-63q-14 0 -14 15q0 14 14 14h74q5 1 10 -3q5 -3 6 -9l9 -56l19 -99h116l-66 274l-113 468h-132l-112 -468l-65 -274h116l40 220q13 71 84 71h48l-44 243l-32 -170q-2 -14 -16 -11q-15 3 -12 17l45 245q2 12 15 12q12 0 13 -12 l63 -335v-6l-2 -3l-2 -3l-2 -2l-2 -2l-5 -1h-67q-29 0 -40 -10t-16 -39l-42 -230v-2l-1 -2l-1 -3l-3 -2q-3 -3 -5 -3h-151q-7 0 -11 5q-4 6 -3 12l69 291l116 481q2 11 14 11h154q11 0 14 -11l115 -480l71 -292q0 -9 -3 -12z" glyph-name="Adieresis" horiz-adv-x="633" unicode=""/>
<glyph d="M189 488q-2 -27 -3 -58v-120q0 -3 1 -57q1 -18 1 -40v-27l8 -249q0 -34 34 -34q14 0 24 10q9 10 9 24v76q0 8 8 13q4 3 8 3q86 0 132 94q16 35 26 81q7 33 10 69l-124 9l-1 -6v-6l-1 -17v-18q-2 -21 -5 -37q-10 -43 -37 -61q-10 -8 -20 4q-8 11 4 20q19 13 26 48 q2 13 3 31l1 16v29l2 13q1 15 15 14l154 -11q13 0 13 -15q-1 -15 -3 -31q-2 -20 -6 -40q-10 -52 -27 -93q-49 -115 -149 -122v-63q0 -26 -18 -44q-18 -19 -44 -19t-44 19q-19 18 -19 44l-8 249v66l-1 20q0 11 -1 17v99q0 67 4 118q5 68 18 103q21 59 75 59h1q41 0 57 -54 q6 -21 8 -54q2 -21 3 -60l130 11q-22 261 -202 263h-1q-79 0 -130 -52q-51 -50 -74 -150q-17 -77 -17 -176q0 -230 83 -317q11 -10 0 -21q-4 -4 -10 -4q-7 0 -11 4q-91 95 -91 338q0 105 19 186q25 106 81 161q59 59 150 59h1q89 0 146 -58q74 -76 86 -246q0 -13 -14 -15 l-158 -13q-7 0 -11 4q-5 3 -5 10v6q0 32 -2 50q-1 29 -5 49q-10 50 -33 50h-1q-34 0 -48 -40q-13 -33 -17 -111z" glyph-name="Ccedilla" horiz-adv-x="581" unicode=""/>
<glyph d="M250 848l16 74l-115 26l-13 -61l58 -13q14 -2 11 -16t-17 -12l-71 16q-14 3 -11 17l18 88q2 14 16 11l144 -32q13 -2 11 -16l-19 -88q-2 -14 -16 -11t-12 17zM14 0q-14 0 -14 14v256q0 35 25 60q25 26 61 27h237v100h-160q-14 0 -14 14v179q0 15 14 15h213v106h-347v-368 q0 -13 -15 -13q-14 0 -14 13v383q0 14 14 14h376q15 0 15 -14v-136q0 -14 -15 -14h-212v-150h159q14 0 14 -15v-129q0 -13 -14 -13h-247q-26 0 -43 -18q-18 -18 -18 -42v-240h347v106h-213q-14 0 -14 15v99q0 14 14 14q15 0 15 -14v-85h212q15 0 15 -14v-136q0 -14 -15 -14 h-376z" glyph-name="Egrave" unicode=""/>
<glyph d="M270 891l-28 71l-109 -44l23 -56l54 21q14 5 20 -8q6 -14 -8 -18l-69 -27q-13 -4 -19 8l-34 84q-2 5 0 11q3 5 9 7l137 53q13 4 18 -8l34 -84q5 -13 -8 -18q-14 -4 -20 8zM14 0q-14 0 -14 14v256q0 35 25 60q25 26 61 27h237v100h-160q-14 0 -14 14v179q0 15 14 15h213 v106h-347v-368q0 -13 -15 -13q-14 0 -14 13v383q0 14 14 14h376q15 0 15 -14v-136q0 -14 -15 -14h-212v-150h159q14 0 14 -15v-129q0 -13 -14 -13h-247q-26 0 -43 -18q-18 -18 -18 -42v-240h347v106h-213q-14 0 -14 15v99q0 14 14 14q15 0 15 -14v-85h212q15 0 15 -14v-136 q0 -14 -15 -14h-376z" glyph-name="Eacute" unicode=""/>
<glyph d="M335 855q-5 10 6 15q21 9 30 29q10 21 1 43t-29 31q-22 9 -45 1q-21 -8 -32 -29q-10 -22 -1 -43q9 -22 31 -31q10 -5 6 -15q-5 -11 -16 -6q-31 13 -43 43q-12 31 2 61t45 42q30 12 62 -1q30 -14 42 -45t-1 -60q-13 -28 -43 -41q-2 -1 -4 -1q-8 0 -11 7zM115 855 q-5 10 6 15q21 9 30 29q10 21 1 43t-29 31q-22 9 -45 1q-21 -8 -32 -29q-10 -22 -1 -43q9 -22 31 -31q10 -5 6 -15q-5 -11 -16 -6q-31 13 -43 43q-12 31 2 61t45 42q30 12 62 -1q30 -14 42 -45t-1 -60q-13 -28 -43 -41q-2 -1 -4 -1q-8 0 -11 7zM14 0q-14 0 -14 14v256 q0 35 25 60q25 26 61 27h237v100h-160q-14 0 -14 14v179q0 15 14 15h213v106h-347v-368q0 -13 -15 -13q-14 0 -14 13v383q0 14 14 14h376q15 0 15 -14v-136q0 -14 -15 -14h-212v-150h159q14 0 14 -15v-129q0 -13 -14 -13h-247q-26 0 -43 -18q-18 -18 -18 -42v-240h347v106 h-213q-14 0 -14 15v99q0 14 14 14q15 0 15 -14v-85h212q15 0 15 -14v-136q0 -14 -15 -14h-376z" glyph-name="Edieresis" unicode=""/>
<glyph d="M133 848l15 74l-114 26l-13 -61l58 -13q14 -2 11 -16t-17 -12l-71 16q-14 3 -11 17l17 88q3 14 17 11l143 -32q14 -2 11 -16l-18 -88q-3 -14 -17 -11t-11 17zM15 0q-14 0 -14 14v535q0 49 25 68q17 14 50 14h18q14 0 14 -14q0 -15 -14 -15h-18q-24 0 -33 -8 q-13 -11 -13 -45v-520h116v742h-116v-73q0 -14 -15 -14q-14 0 -14 14v88q0 14 14 14h144q15 0 15 -14v-772q0 -14 -15 -14h-144z" glyph-name="Igrave" horiz-adv-x="278" unicode=""/>
<glyph d="M163 891l-28 71l-110 -44l23 -56l55 21q13 5 19 -8q6 -14 -8 -18l-68 -27q-14 -4 -19 8l-34 84q-6 13 8 18l137 53q12 4 18 -8l34 -84q6 -13 -8 -18q-14 -4 -19 8zM16 0q-14 0 -14 14v535q0 49 25 68q17 14 50 14h18q14 0 14 -14q0 -15 -14 -15h-18q-24 0 -33 -8 q-13 -11 -13 -45v-520h116v742h-116v-73q0 -14 -15 -14q-14 0 -14 14v88q0 14 14 14h144q15 0 15 -14v-772q0 -14 -15 -14h-144z" glyph-name="Iacute" horiz-adv-x="289" unicode=""/>
<glyph d="M293 855q-5 10 6 15q21 9 30 29q10 21 1 43t-29 31q-22 9 -45 1q-21 -8 -32 -29q-10 -22 -1 -43q9 -22 31 -31q10 -5 6 -15q-5 -11 -16 -6q-31 13 -43 43q-12 31 2 61t45 42q30 12 62 -1q30 -14 42 -45t-1 -60q-13 -28 -43 -41q-2 -1 -4 -1q-8 0 -11 7zM97 855 q-5 10 6 15q21 9 30 29q10 21 1 43t-29 31q-22 9 -45 1q-21 -8 -32 -29q-10 -22 -1 -43q9 -22 31 -31q10 -5 6 -15q-5 -11 -16 -6q-31 13 -43 43q-12 31 2 61t45 42q30 12 62 -1q30 -14 42 -45t-1 -60q-13 -28 -43 -41q-2 -1 -4 -1q-8 0 -11 7zM100 0q-14 0 -14 14v535 q0 49 25 68q17 14 50 14h18q14 0 14 -14q0 -15 -14 -15h-18q-24 0 -33 -8q-13 -11 -13 -45v-520h116v742h-116v-73q0 -14 -15 -14q-14 0 -14 14v88q0 14 14 14h144q15 0 15 -14v-772q0 -14 -15 -14h-144z" glyph-name="Idieresis" horiz-adv-x="440" unicode=""/>
<glyph d="M290 -12q-63 1 -95 42q-12 15 -19 36q-3 7 -5 16l-2 7l-2 7l-1 6q-7 30 -8 110q-1 29 -1 68v50l1 15v44q0 180 16 225q20 60 65 60q52 0 71 -61q9 -31 12 -103q2 -25 2 -57v-83q0 -30 -1 -56q-1 -79 -7 -112q-4 -26 -12 -42q-10 -22 -29 -32q-13 -6 -19 7q-6 14 6 19 q19 10 25 53q5 33 8 113q0 26 1 55v74q-1 31 -2 56q-3 71 -12 99q-12 40 -43 40q-11 0 -19 -6q-11 -10 -19 -33q-15 -42 -15 -216v-44q-1 -38 -1 -63q0 -39 1 -68q2 -77 8 -106l2 -5l3 -14l5 -14q5 -16 14 -28q24 -29 74 -29h2q81 0 123 122q36 102 36 252q0 200 -51 295 q-52 95 -160 95q-109 0 -161 -92q-52 -91 -52 -284q0 -209 58 -313l2 -3l4 -5q5 -8 10 -15q9 -11 -1 -20q-5 -4 -11 -4q-6 1 -9 5q-7 8 -13 17q-2 3 -3 6l-2 2l-1 2q-63 110 -63 328q0 406 242 406q143 0 201 -142q39 -99 39 -278q0 -167 -42 -275q-51 -129 -148 -129h-2z M290 848l16 74l-115 26l-12 -61l57 -13q14 -2 11 -16t-17 -12l-71 16q-14 3 -11 17l18 88q2 14 17 11l143 -32q13 -2 11 -16l-19 -88q-2 -14 -16 -11t-12 17z" glyph-name="Ograve" horiz-adv-x="582" unicode=""/>
<glyph d="M290 -12q-63 1 -95 42q-12 15 -19 36q-3 7 -5 16l-2 7l-2 7l-1 6q-7 30 -8 110q-1 29 -1 68v50l1 15v44q0 180 16 225q20 60 65 60q52 0 71 -61q9 -31 12 -103q2 -25 2 -57v-83q0 -30 -1 -56q-1 -79 -7 -112q-4 -26 -12 -42q-10 -22 -29 -32q-13 -6 -19 7q-6 14 6 19 q19 10 25 53q5 33 8 113q0 26 1 55v74q-1 31 -2 56q-3 71 -12 99q-12 40 -43 40q-11 0 -19 -6q-11 -10 -19 -33q-15 -42 -15 -216v-44q-1 -38 -1 -63q0 -39 1 -68q2 -77 8 -106l2 -5l3 -14l5 -14q5 -16 14 -28q24 -29 74 -29h2q81 0 123 122q36 102 36 252q0 200 -51 295 q-52 95 -160 95q-109 0 -161 -92q-52 -91 -52 -284q0 -209 58 -313l2 -3l4 -5q5 -8 10 -15q9 -11 -1 -20q-5 -4 -11 -4q-6 1 -9 5q-7 8 -13 17q-2 3 -3 6l-2 2l-1 2q-63 110 -63 328q0 406 242 406q143 0 201 -142q39 -99 39 -278q0 -167 -42 -275q-51 -129 -148 -129h-2z M310 891l-28 71l-109 -44l23 -56l54 21q14 5 20 -8q6 -14 -8 -18l-68 -27q-14 -4 -20 8l-33 84q-6 13 8 18l137 53q12 4 17 -8l35 -84q5 -13 -8 -18q-14 -4 -20 8z" glyph-name="Oacute" horiz-adv-x="582" unicode=""/>
<glyph d="M365 855q-5 10 6 15q21 9 30 29q10 21 1 43t-29 31q-22 9 -45 1q-21 -8 -32 -29q-10 -22 -1 -43q9 -22 31 -31q10 -5 6 -15q-5 -11 -16 -6q-31 13 -43 43q-12 31 2 61t45 42q30 12 62 -1q30 -14 42 -45t-1 -60q-13 -28 -43 -41q-2 -1 -4 -1q-8 0 -11 7zM145 855 q-5 10 6 15q21 9 30 29q10 21 1 43t-29 31q-22 9 -45 1q-21 -8 -32 -29q-10 -22 -1 -43q9 -22 31 -31q10 -5 6 -15q-5 -11 -16 -6q-31 13 -43 43q-12 31 2 61t45 42q30 12 62 -1q30 -14 42 -45t-1 -60q-13 -28 -43 -41q-2 -1 -4 -1q-8 0 -11 7zM290 -12q-63 1 -95 42 q-12 15 -19 36q-3 7 -5 16l-2 7l-2 7l-1 6q-7 30 -8 110q-1 29 -1 68v50l1 15v44q0 180 16 225q20 60 65 60q52 0 71 -61q9 -31 12 -103q2 -25 2 -57v-83q0 -30 -1 -56q-1 -79 -7 -112q-4 -26 -12 -42q-10 -22 -29 -32q-13 -6 -19 7q-6 14 6 19q19 10 25 53q5 33 8 113 q0 26 1 55v74q-1 31 -2 56q-3 71 -12 99q-12 40 -43 40q-11 0 -19 -6q-11 -10 -19 -33q-15 -42 -15 -216v-44q-1 -38 -1 -63q0 -39 1 -68q2 -77 8 -106l2 -5l3 -14l5 -14q5 -16 14 -28q24 -29 74 -29h2q81 0 123 122q36 102 36 252q0 200 -51 295q-52 95 -160 95 q-109 0 -161 -92q-52 -91 -52 -284q0 -209 58 -313l2 -3l4 -5q5 -8 10 -15q9 -11 -1 -20q-5 -4 -11 -4q-6 1 -9 5q-7 8 -13 17q-2 3 -3 6l-2 2l-1 2q-63 110 -63 328q0 406 242 406q143 0 201 -142q39 -99 39 -278q0 -167 -42 -275q-51 -129 -148 -129h-2z" glyph-name="Odieresis" horiz-adv-x="530" unicode=""/>
<glyph d="M258 848l16 74l-115 26l-12 -61l57 -13q14 -2 11 -16t-17 -12l-71 16q-14 3 -11 17l18 88q2 14 16 11l144 -32q13 -2 11 -16l-19 -88q-2 -14 -16 -11t-12 17zM417 800q15 0 15 -14v-502q0 -141 -25 -200q-35 -84 -137 -84q-51 0 -86 40q-40 45 -40 124v608h-115v-488 q0 -191 85 -236q12 -6 4 -18q-8 -13 -19 -7q-99 53 -99 261v502q0 14 14 14h144q15 0 15 -14v-622q0 -66 30 -103q27 -33 67 -33q81 0 109 63q23 53 23 193v488h-114v-483q0 -108 -28 -136q-11 -11 -21 -1t0 20q20 20 20 117v497q0 14 15 14h143z" glyph-name="Ugrave" horiz-adv-x="532" unicode=""/>
<glyph d="M278 891l-28 71l-109 -44l23 -56l54 21q14 5 20 -8q6 -14 -8 -18l-68 -27q-14 -4 -20 8l-33 84q-6 13 8 18l137 53q12 4 17 -8l35 -84q5 -13 -8 -18q-14 -4 -20 8zM417 800q15 0 15 -14v-502q0 -141 -25 -200q-35 -84 -137 -84q-51 0 -86 40q-40 45 -40 124v608h-115 v-488q0 -191 85 -236q12 -6 4 -18q-8 -13 -19 -7q-99 53 -99 261v502q0 14 14 14h144q15 0 15 -14v-622q0 -66 30 -103q27 -33 67 -33q81 0 109 63q23 53 23 193v488h-114v-483q0 -108 -28 -136q-11 -11 -21 -1t0 20q20 20 20 117v497q0 14 15 14h143z" glyph-name="Uacute" horiz-adv-x="532" unicode=""/>
<glyph d="M345 855q-5 10 6 15q21 9 30 29q10 21 1 43t-29 31q-22 9 -45 1q-21 -8 -32 -29q-10 -22 -1 -43q9 -22 31 -31q10 -5 6 -15q-5 -11 -16 -6q-31 13 -43 43q-12 31 2 61t45 42q30 12 62 -1q30 -14 42 -45t-1 -60q-13 -28 -43 -41q-2 -1 -4 -1q-8 0 -11 7zM125 855 q-5 10 6 15q21 9 30 29q10 21 1 43t-29 31q-22 9 -45 1q-21 -8 -32 -29q-10 -22 -1 -43q9 -22 31 -31q10 -5 6 -15q-5 -11 -16 -6q-31 13 -43 43q-12 31 2 61t45 42q30 12 62 -1q30 -14 42 -45t-1 -60q-13 -28 -43 -41q-2 -1 -4 -1q-8 0 -11 7zM417 800q15 0 15 -14v-502 q0 -141 -25 -200q-35 -84 -137 -84q-51 0 -86 40q-40 45 -40 124v608h-115v-488q0 -191 85 -236q12 -6 4 -18q-8 -13 -19 -7q-99 53 -99 261v502q0 14 14 14h144q15 0 15 -14v-622q0 -66 30 -103q27 -33 67 -33q81 0 109 63q23 53 23 193v488h-114v-483q0 -108 -28 -136 q-11 -11 -21 -1t0 20q20 20 20 117v497q0 14 15 14h143z" glyph-name="Udieresis" horiz-adv-x="532" unicode=""/>
<glyph d="M329 848l16 74l-115 26l-13 -61l58 -13q14 -2 11 -16t-17 -12l-71 16q-14 3 -11 17l18 88q2 14 16 11l144 -32q13 -2 11 -16l-19 -88q-2 -14 -16 -11t-12 17zM550 5q-3 -5 -11 -5h-150l-2 1l-3 1l-2 3l-1 3l-1 2l-1 2l-21 110l-8 44h-63q-14 0 -14 15q0 14 14 14h74 q5 1 10 -3q5 -3 6 -9l9 -56l19 -99h116l-66 274l-113 468h-132l-112 -468l-65 -274h116l40 220q13 71 84 71h48l-44 243l-32 -170q-2 -14 -16 -11q-15 3 -12 17l45 245q2 12 15 12q12 0 13 -12l63 -335v-6l-2 -3l-2 -3l-2 -2l-2 -2l-5 -1h-67q-29 0 -40 -10t-16 -39 l-42 -230v-2l-1 -2l-1 -3l-3 -2q-3 -3 -5 -3h-151q-7 0 -11 5q-4 6 -3 12l69 291l116 481q2 11 14 11h154q11 0 14 -11l115 -480l71 -292q0 -9 -3 -12z" glyph-name="agrave" horiz-adv-x="633" unicode=""/>
<glyph d="M349 891l-28 71l-109 -44l23 -56l54 21q14 5 20 -8q2 -5 -1 -11q-3 -5 -8 -7l-67 -27q-14 -4 -20 8l-33 84q-6 13 8 18l137 53q12 4 17 -8l35 -84q5 -13 -8 -18q-14 -4 -20 8zM550 5q-3 -5 -11 -5h-150l-2 1l-3 1l-2 3l-1 3l-1 2l-1 2l-21 110l-8 44h-63q-14 0 -14 15 q0 14 14 14h74q5 1 10 -3q5 -3 6 -9l9 -56l19 -99h116l-66 274l-113 468h-132l-112 -468l-65 -274h116l40 220q13 71 84 71h48l-44 243l-32 -170q-2 -14 -16 -11q-15 3 -12 17l45 245q2 12 15 12q12 0 13 -12l63 -335v-6l-2 -3l-2 -3l-2 -2l-2 -2l-5 -1h-67q-29 0 -40 -10 t-16 -39l-42 -230v-2l-1 -2l-1 -3l-3 -2q-3 -3 -5 -3h-151q-7 0 -11 5q-4 6 -3 12l69 291l116 481q2 11 14 11h154q11 0 14 -11l115 -480l71 -292q0 -9 -3 -12z" glyph-name="aacute" horiz-adv-x="633" unicode=""/>
<glyph d="M401 855q-5 10 6 15q21 9 30 29q10 21 1 43t-29 31q-22 9 -45 1q-21 -8 -32 -29q-10 -22 -1 -43q9 -22 31 -31q10 -5 6 -15q-5 -11 -16 -6q-31 13 -43 43q-12 31 2 61t45 42q30 12 62 -1q30 -14 42 -45t-1 -60q-13 -28 -43 -41q-2 -1 -4 -1q-8 0 -11 7zM181 855 q-5 10 6 15q21 9 30 29q10 21 1 43t-29 31q-22 9 -45 1q-21 -8 -32 -29q-10 -22 -1 -43q9 -22 31 -31q10 -5 6 -15q-5 -11 -16 -6q-31 13 -43 43q-12 31 2 61t45 42q30 12 62 -1q30 -14 42 -45t-1 -60q-13 -28 -43 -41q-2 -1 -4 -1q-8 0 -11 7zM550 5q-3 -5 -11 -5h-150 l-2 1l-3 1l-2 3l-1 3l-1 2l-1 2l-21 110l-8 44h-63q-14 0 -14 15q0 14 14 14h74q5 1 10 -3q5 -3 6 -9l9 -56l19 -99h116l-66 274l-113 468h-132l-112 -468l-65 -274h116l40 220q13 71 84 71h48l-44 243l-32 -170q-2 -14 -16 -11q-15 3 -12 17l45 245q2 12 15 12q12 0 13 -12 l63 -335v-6l-2 -3l-2 -3l-2 -2l-2 -2l-5 -1h-67q-29 0 -40 -10t-16 -39l-42 -230v-2l-1 -2l-1 -3l-3 -2q-3 -3 -5 -3h-151q-7 0 -11 5q-4 6 -3 12l69 291l116 481q2 11 14 11h154q11 0 14 -11l115 -480l71 -292q0 -9 -3 -12z" glyph-name="adieresis" horiz-adv-x="633" unicode=""/>
<glyph d="M250 848l16 74l-115 26l-13 -61l58 -13q14 -2 11 -16t-17 -12l-71 16q-14 3 -11 17l18 88q2 14 16 11l144 -32q13 -2 11 -16l-19 -88q-2 -14 -16 -11t-12 17zM14 0q-14 0 -14 14v256q0 35 25 60q25 26 61 27h237v100h-160q-14 0 -14 14v179q0 15 14 15h213v106h-347v-368 q0 -13 -15 -13q-14 0 -14 13v383q0 14 14 14h376q15 0 15 -14v-136q0 -14 -15 -14h-212v-150h159q14 0 14 -15v-129q0 -13 -14 -13h-247q-26 0 -43 -18q-18 -18 -18 -42v-240h347v106h-213q-14 0 -14 15v99q0 14 14 14q15 0 15 -14v-85h212q15 0 15 -14v-136q0 -14 -15 -14 h-376z" glyph-name="egrave" unicode=""/>
<glyph d="M270 891l-28 71l-109 -44l23 -56l54 21q14 5 20 -8q6 -14 -8 -18l-69 -27q-13 -4 -19 8l-34 84q-2 5 0 11q3 5 9 7l137 53q13 4 18 -8l34 -84q5 -13 -8 -18q-14 -4 -20 8zM14 0q-14 0 -14 14v256q0 35 25 60q25 26 61 27h237v100h-160q-14 0 -14 14v179q0 15 14 15h213 v106h-347v-368q0 -13 -15 -13q-14 0 -14 13v383q0 14 14 14h376q15 0 15 -14v-136q0 -14 -15 -14h-212v-150h159q14 0 14 -15v-129q0 -13 -14 -13h-247q-26 0 -43 -18q-18 -18 -18 -42v-240h347v106h-213q-14 0 -14 15v99q0 14 14 14q15 0 15 -14v-85h212q15 0 15 -14v-136 q0 -14 -15 -14h-376z" glyph-name="eacute" unicode=""/>
<glyph d="M335 855q-5 10 6 15q21 9 30 29q10 21 1 43t-29 31q-22 9 -45 1q-21 -8 -32 -29q-10 -22 -1 -43q9 -22 31 -31q10 -5 6 -15q-5 -11 -16 -6q-31 13 -43 43q-12 31 2 61t45 42q30 12 62 -1q30 -14 42 -45t-1 -60q-13 -28 -43 -41q-2 -1 -4 -1q-8 0 -11 7zM115 855 q-5 10 6 15q21 9 30 29q10 21 1 43t-29 31q-22 9 -45 1q-21 -8 -32 -29q-10 -22 -1 -43q9 -22 31 -31q10 -5 6 -15q-5 -11 -16 -6q-31 13 -43 43q-12 31 2 61t45 42q30 12 62 -1q30 -14 42 -45t-1 -60q-13 -28 -43 -41q-2 -1 -4 -1q-8 0 -11 7zM14 0q-14 0 -14 14v256 q0 35 25 60q25 26 61 27h237v100h-160q-14 0 -14 14v179q0 15 14 15h213v106h-347v-368q0 -13 -15 -13q-14 0 -14 13v383q0 14 14 14h376q15 0 15 -14v-136q0 -14 -15 -14h-212v-150h159q14 0 14 -15v-129q0 -13 -14 -13h-247q-26 0 -43 -18q-18 -18 -18 -42v-240h347v106 h-213q-14 0 -14 15v99q0 14 14 14q15 0 15 -14v-85h212q15 0 15 -14v-136q0 -14 -15 -14h-376z" glyph-name="edieresis" unicode=""/>
<glyph d="M133 848l15 74l-114 26l-13 -61l58 -13q14 -2 11 -16t-17 -12l-71 16q-14 3 -11 17l17 88q3 14 17 11l143 -32q14 -2 11 -16l-18 -88q-3 -14 -17 -11t-11 17zM15 0q-14 0 -14 14v535q0 49 25 68q17 14 50 14h18q14 0 14 -14q0 -15 -14 -15h-18q-24 0 -33 -8 q-13 -11 -13 -45v-520h116v742h-116v-73q0 -14 -15 -14q-14 0 -14 14v88q0 14 14 14h144q15 0 15 -14v-772q0 -14 -15 -14h-144z" glyph-name="igrave" horiz-adv-x="278" unicode=""/>
<glyph d="M163 891l-28 71l-110 -44l23 -56l55 21q13 5 19 -8q6 -14 -8 -18l-68 -27q-14 -4 -19 8l-34 84q-6 13 8 18l137 53q12 4 18 -8l34 -84q6 -13 -8 -18q-14 -4 -19 8zM16 0q-14 0 -14 14v535q0 49 25 68q17 14 50 14h18q14 0 14 -14q0 -15 -14 -15h-18q-24 0 -33 -8 q-13 -11 -13 -45v-520h116v742h-116v-73q0 -14 -15 -14q-14 0 -14 14v88q0 14 14 14h144q15 0 15 -14v-772q0 -14 -15 -14h-144z" glyph-name="iacute" horiz-adv-x="289" unicode=""/>
<glyph d="M293 855q-5 10 6 15q21 9 30 29q10 21 1 43t-29 31q-22 9 -45 1q-21 -8 -32 -29q-10 -22 -1 -43q9 -22 31 -31q10 -5 6 -15q-5 -11 -16 -6q-31 13 -43 43q-12 31 2 61t45 42q30 12 62 -1q30 -14 42 -45t-1 -60q-13 -28 -43 -41q-2 -1 -4 -1q-8 0 -11 7zM97 855 q-5 10 6 15q21 9 30 29q10 21 1 43t-29 31q-22 9 -45 1q-21 -8 -32 -29q-10 -22 -1 -43q9 -22 31 -31q10 -5 6 -15q-5 -11 -16 -6q-31 13 -43 43q-12 31 2 61t45 42q30 12 62 -1q30 -14 42 -45t-1 -60q-13 -28 -43 -41q-2 -1 -4 -1q-8 0 -11 7zM100 0q-14 0 -14 14v535 q0 49 25 68q17 14 50 14h18q14 0 14 -14q0 -15 -14 -15h-18q-24 0 -33 -8q-13 -11 -13 -45v-520h116v742h-116v-73q0 -14 -15 -14q-14 0 -14 14v88q0 14 14 14h144q15 0 15 -14v-772q0 -14 -15 -14h-144z" glyph-name="idieresis" horiz-adv-x="440" unicode=""/>
<glyph d="M290 -12q-63 1 -95 42q-12 15 -19 36q-3 7 -5 16l-2 7l-2 7l-1 6q-7 30 -8 110q-1 29 -1 68v50l1 15v44q0 180 16 225q20 60 65 60q52 0 71 -61q9 -31 12 -103q2 -25 2 -57v-83q0 -30 -1 -56q-1 -79 -7 -112q-4 -26 -12 -42q-10 -22 -29 -32q-13 -6 -19 7q-6 14 6 19 q19 10 25 53q5 33 8 113q0 26 1 55v74q-1 31 -2 56q-3 71 -12 99q-12 40 -43 40q-11 0 -19 -6q-11 -10 -19 -33q-15 -42 -15 -216v-44q-1 -38 -1 -63q0 -39 1 -68q2 -77 8 -106l2 -5l3 -14l5 -14q5 -16 14 -28q24 -29 74 -29h2q81 0 123 122q36 102 36 252q0 200 -51 295 q-52 95 -160 95q-109 0 -161 -92q-52 -91 -52 -284q0 -209 58 -313l2 -3l4 -5q5 -8 10 -15q9 -11 -1 -20q-5 -4 -11 -4q-6 1 -9 5q-7 8 -13 17q-2 3 -3 6l-2 2l-1 2q-63 110 -63 328q0 406 242 406q143 0 201 -142q39 -99 39 -278q0 -167 -42 -275q-51 -129 -148 -129h-2z M290 848l16 74l-115 26l-12 -61l57 -13q14 -2 11 -16t-17 -12l-71 16q-14 3 -11 17l18 88q2 14 17 11l143 -32q13 -2 11 -16l-19 -88q-2 -14 -16 -11t-12 17z" glyph-name="ograve" horiz-adv-x="582" unicode=""/>
<glyph d="M290 -12q-63 1 -95 42q-12 15 -19 36q-3 7 -5 16l-2 7l-2 7l-1 6q-7 30 -8 110q-1 29 -1 68v50l1 15v44q0 180 16 225q20 60 65 60q52 0 71 -61q9 -31 12 -103q2 -25 2 -57v-83q0 -30 -1 -56q-1 -79 -7 -112q-4 -26 -12 -42q-10 -22 -29 -32q-13 -6 -19 7q-6 14 6 19 q19 10 25 53q5 33 8 113q0 26 1 55v74q-1 31 -2 56q-3 71 -12 99q-12 40 -43 40q-11 0 -19 -6q-11 -10 -19 -33q-15 -42 -15 -216v-44q-1 -38 -1 -63q0 -39 1 -68q2 -77 8 -106l2 -5l3 -14l5 -14q5 -16 14 -28q24 -29 74 -29h2q81 0 123 122q36 102 36 252q0 200 -51 295 q-52 95 -160 95q-109 0 -161 -92q-52 -91 -52 -284q0 -209 58 -313l2 -3l4 -5q5 -8 10 -15q9 -11 -1 -20q-5 -4 -11 -4q-6 1 -9 5q-7 8 -13 17q-2 3 -3 6l-2 2l-1 2q-63 110 -63 328q0 406 242 406q143 0 201 -142q39 -99 39 -278q0 -167 -42 -275q-51 -129 -148 -129h-2z M310 891l-28 71l-109 -44l23 -56l54 21q14 5 20 -8q6 -14 -8 -18l-68 -27q-14 -4 -20 8l-33 84q-6 13 8 18l137 53q12 4 17 -8l35 -84q5 -13 -8 -18q-14 -4 -20 8z" glyph-name="oacute" horiz-adv-x="582" unicode=""/>
<glyph d="M365 855q-5 10 6 15q21 9 30 29q10 21 1 43t-29 31q-22 9 -45 1q-21 -8 -32 -29q-10 -22 -1 -43q9 -22 31 -31q10 -5 6 -15q-5 -11 -16 -6q-31 13 -43 43q-12 31 2 61t45 42q30 12 62 -1q30 -14 42 -45t-1 -60q-13 -28 -43 -41q-2 -1 -4 -1q-8 0 -11 7zM145 855 q-5 10 6 15q21 9 30 29q10 21 1 43t-29 31q-22 9 -45 1q-21 -8 -32 -29q-10 -22 -1 -43q9 -22 31 -31q10 -5 6 -15q-5 -11 -16 -6q-31 13 -43 43q-12 31 2 61t45 42q30 12 62 -1q30 -14 42 -45t-1 -60q-13 -28 -43 -41q-2 -1 -4 -1q-8 0 -11 7zM290 -12q-63 1 -95 42 q-12 15 -19 36q-3 7 -5 16l-2 7l-2 7l-1 6q-7 30 -8 110q-1 29 -1 68v50l1 15v44q0 180 16 225q20 60 65 60q52 0 71 -61q9 -31 12 -103q2 -25 2 -57v-83q0 -30 -1 -56q-1 -79 -7 -112q-4 -26 -12 -42q-10 -22 -29 -32q-13 -6 -19 7q-6 14 6 19q19 10 25 53q5 33 8 113 q0 26 1 55v74q-1 31 -2 56q-3 71 -12 99q-12 40 -43 40q-11 0 -19 -6q-11 -10 -19 -33q-15 -42 -15 -216v-44q-1 -38 -1 -63q0 -39 1 -68q2 -77 8 -106l2 -5l3 -14l5 -14q5 -16 14 -28q24 -29 74 -29h2q81 0 123 122q36 102 36 252q0 200 -51 295q-52 95 -160 95 q-109 0 -161 -92q-52 -91 -52 -284q0 -209 58 -313l2 -3l4 -5q5 -8 10 -15q9 -11 -1 -20q-5 -4 -11 -4q-6 1 -9 5q-7 8 -13 17q-2 3 -3 6l-2 2l-1 2q-63 110 -63 328q0 406 242 406q143 0 201 -142q39 -99 39 -278q0 -167 -42 -275q-51 -129 -148 -129h-2z" glyph-name="odieresis" horiz-adv-x="530" unicode=""/>
<glyph d="M258 848l16 74l-115 26l-12 -61l57 -13q14 -2 11 -16t-17 -12l-71 16q-14 3 -11 17l18 88q2 14 16 11l144 -32q13 -2 11 -16l-19 -88q-2 -14 -16 -11t-12 17zM417 800q15 0 15 -14v-502q0 -141 -25 -200q-35 -84 -137 -84q-51 0 -86 40q-40 45 -40 124v608h-115v-488 q0 -191 85 -236q12 -6 4 -18q-8 -13 -19 -7q-99 53 -99 261v502q0 14 14 14h144q15 0 15 -14v-622q0 -66 30 -103q27 -33 67 -33q81 0 109 63q23 53 23 193v488h-114v-483q0 -108 -28 -136q-11 -11 -21 -1t0 20q20 20 20 117v497q0 14 15 14h143z" glyph-name="ugrave" horiz-adv-x="532" unicode=""/>
<glyph d="M278 891l-28 71l-109 -44l23 -56l54 21q14 5 20 -8q6 -14 -8 -18l-68 -27q-14 -4 -20 8l-33 84q-6 13 8 18l137 53q12 4 17 -8l35 -84q5 -13 -8 -18q-14 -4 -20 8zM417 800q15 0 15 -14v-502q0 -141 -25 -200q-35 -84 -137 -84q-51 0 -86 40q-40 45 -40 124v608h-115 v-488q0 -191 85 -236q12 -6 4 -18q-8 -13 -19 -7q-99 53 -99 261v502q0 14 14 14h144q15 0 15 -14v-622q0 -66 30 -103q27 -33 67 -33q81 0 109 63q23 53 23 193v488h-114v-483q0 -108 -28 -136q-11 -11 -21 -1t0 20q20 20 20 117v497q0 14 15 14h143z" glyph-name="uacute" horiz-adv-x="532" unicode=""/>
<glyph d="M345 855q-5 10 6 15q21 9 30 29q10 21 1 43t-29 31q-22 9 -45 1q-21 -8 -32 -29q-10 -22 -1 -43q9 -22 31 -31q10 -5 6 -15q-5 -11 -16 -6q-31 13 -43 43q-12 31 2 61t45 42q30 12 62 -1q30 -14 42 -45t-1 -60q-13 -28 -43 -41q-2 -1 -4 -1q-8 0 -11 7zM125 855 q-5 10 6 15q21 9 30 29q10 21 1 43t-29 31q-22 9 -45 1q-21 -8 -32 -29q-10 -22 -1 -43q9 -22 31 -31q10 -5 6 -15q-5 -11 -16 -6q-31 13 -43 43q-12 31 2 61t45 42q30 12 62 -1q30 -14 42 -45t-1 -60q-13 -28 -43 -41q-2 -1 -4 -1q-8 0 -11 7zM417 800q15 0 15 -14v-502 q0 -141 -25 -200q-35 -84 -137 -84q-51 0 -86 40q-40 45 -40 124v608h-115v-488q0 -191 85 -236q12 -6 4 -18q-8 -13 -19 -7q-99 53 -99 261v502q0 14 14 14h144q15 0 15 -14v-622q0 -66 30 -103q27 -33 67 -33q81 0 109 63q23 53 23 193v488h-114v-483q0 -108 -28 -136 q-11 -11 -21 -1t0 20q20 20 20 117v497q0 14 15 14h143z" glyph-name="udieresis" horiz-adv-x="532" unicode=""/>
</font>
</defs>
</svg>
